<?xml version="1.0" encoding="utf-8"?>
<svg xmlns="http://www.w3.org/2000/svg" xmlns:xlink="http://www.w3.org/1999/xlink" width="600" height="400" viewBox="0 0 2400 1600">
<defs>
  <clipPath id="clip190">
    <rect x="0" y="0" width="2400" height="1600"/>
  </clipPath>
</defs>
<path clip-path="url(#clip190)" d="M0 1600 L2400 1600 L2400 0 L0 0  Z" fill="#ffffff" fill-rule="evenodd" fill-opacity="1"/>
<defs>
  <clipPath id="clip191">
    <rect x="480" y="0" width="1681" height="1600"/>
  </clipPath>
</defs>
<path clip-path="url(#clip190)" d="M234.125 1423.18 L2352.76 1423.18 L2352.76 123.472 L234.125 123.472  Z" fill="#ffffff" fill-rule="evenodd" fill-opacity="1"/>
<defs>
  <clipPath id="clip192">
    <rect x="234" y="123" width="2120" height="1301"/>
  </clipPath>
</defs>
<polyline clip-path="url(#clip192)" style="stroke:#000000; stroke-linecap:round; stroke-linejoin:round; stroke-width:2; stroke-opacity:0.1; fill:none" points="293.087,1423.18 293.087,123.472 "/>
<polyline clip-path="url(#clip192)" style="stroke:#000000; stroke-linecap:round; stroke-linejoin:round; stroke-width:2; stroke-opacity:0.1; fill:none" points="793.014,1423.18 793.014,123.472 "/>
<polyline clip-path="url(#clip192)" style="stroke:#000000; stroke-linecap:round; stroke-linejoin:round; stroke-width:2; stroke-opacity:0.1; fill:none" points="1292.94,1423.18 1292.94,123.472 "/>
<polyline clip-path="url(#clip192)" style="stroke:#000000; stroke-linecap:round; stroke-linejoin:round; stroke-width:2; stroke-opacity:0.1; fill:none" points="1792.87,1423.18 1792.87,123.472 "/>
<polyline clip-path="url(#clip192)" style="stroke:#000000; stroke-linecap:round; stroke-linejoin:round; stroke-width:2; stroke-opacity:0.1; fill:none" points="2292.79,1423.18 2292.79,123.472 "/>
<polyline clip-path="url(#clip192)" style="stroke:#000000; stroke-linecap:round; stroke-linejoin:round; stroke-width:2; stroke-opacity:0.1; fill:none" points="234.125,1386.4 2352.76,1386.4 "/>
<polyline clip-path="url(#clip192)" style="stroke:#000000; stroke-linecap:round; stroke-linejoin:round; stroke-width:2; stroke-opacity:0.1; fill:none" points="234.125,971.965 2352.76,971.965 "/>
<polyline clip-path="url(#clip192)" style="stroke:#000000; stroke-linecap:round; stroke-linejoin:round; stroke-width:2; stroke-opacity:0.1; fill:none" points="234.125,557.534 2352.76,557.534 "/>
<polyline clip-path="url(#clip192)" style="stroke:#000000; stroke-linecap:round; stroke-linejoin:round; stroke-width:2; stroke-opacity:0.1; fill:none" points="234.125,143.103 2352.76,143.103 "/>
<polyline clip-path="url(#clip190)" style="stroke:#000000; stroke-linecap:round; stroke-linejoin:round; stroke-width:4; stroke-opacity:1; fill:none" points="234.125,1423.18 2352.76,1423.18 "/>
<polyline clip-path="url(#clip190)" style="stroke:#000000; stroke-linecap:round; stroke-linejoin:round; stroke-width:4; stroke-opacity:1; fill:none" points="293.087,1423.18 293.087,1404.28 "/>
<polyline clip-path="url(#clip190)" style="stroke:#000000; stroke-linecap:round; stroke-linejoin:round; stroke-width:4; stroke-opacity:1; fill:none" points="793.014,1423.18 793.014,1404.28 "/>
<polyline clip-path="url(#clip190)" style="stroke:#000000; stroke-linecap:round; stroke-linejoin:round; stroke-width:4; stroke-opacity:1; fill:none" points="1292.94,1423.18 1292.94,1404.28 "/>
<polyline clip-path="url(#clip190)" style="stroke:#000000; stroke-linecap:round; stroke-linejoin:round; stroke-width:4; stroke-opacity:1; fill:none" points="1792.87,1423.18 1792.87,1404.28 "/>
<polyline clip-path="url(#clip190)" style="stroke:#000000; stroke-linecap:round; stroke-linejoin:round; stroke-width:4; stroke-opacity:1; fill:none" points="2292.79,1423.18 2292.79,1404.28 "/>
<path clip-path="url(#clip190)" d="M293.087 1454.1 Q289.476 1454.1 287.647 1457.66 Q285.842 1461.2 285.842 1468.33 Q285.842 1475.44 287.647 1479.01 Q289.476 1482.55 293.087 1482.55 Q296.721 1482.55 298.527 1479.01 Q300.355 1475.44 300.355 1468.33 Q300.355 1461.2 298.527 1457.66 Q296.721 1454.1 293.087 1454.1 M293.087 1450.39 Q298.897 1450.39 301.953 1455 Q305.031 1459.58 305.031 1468.33 Q305.031 1477.06 301.953 1481.67 Q298.897 1486.25 293.087 1486.25 Q287.277 1486.25 284.198 1481.67 Q281.142 1477.06 281.142 1468.33 Q281.142 1459.58 284.198 1455 Q287.277 1450.39 293.087 1450.39 Z" fill="#000000" fill-rule="nonzero" fill-opacity="1" /><path clip-path="url(#clip190)" d="M752.632 1451.02 L770.988 1451.02 L770.988 1454.96 L756.914 1454.96 L756.914 1463.43 Q757.933 1463.08 758.951 1462.92 Q759.97 1462.73 760.989 1462.73 Q766.776 1462.73 770.155 1465.9 Q773.535 1469.08 773.535 1474.49 Q773.535 1480.07 770.063 1483.17 Q766.59 1486.25 760.271 1486.25 Q758.095 1486.25 755.826 1485.88 Q753.581 1485.51 751.174 1484.77 L751.174 1480.07 Q753.257 1481.2 755.479 1481.76 Q757.701 1482.32 760.178 1482.32 Q764.183 1482.32 766.521 1480.21 Q768.859 1478.1 768.859 1474.49 Q768.859 1470.88 766.521 1468.77 Q764.183 1466.67 760.178 1466.67 Q758.303 1466.67 756.428 1467.08 Q754.576 1467.5 752.632 1468.38 L752.632 1451.02 Z" fill="#000000" fill-rule="nonzero" fill-opacity="1" /><path clip-path="url(#clip190)" d="M792.748 1454.1 Q789.136 1454.1 787.308 1457.66 Q785.502 1461.2 785.502 1468.33 Q785.502 1475.44 787.308 1479.01 Q789.136 1482.55 792.748 1482.55 Q796.382 1482.55 798.187 1479.01 Q800.016 1475.44 800.016 1468.33 Q800.016 1461.2 798.187 1457.66 Q796.382 1454.1 792.748 1454.1 M792.748 1450.39 Q798.558 1450.39 801.613 1455 Q804.692 1459.58 804.692 1468.33 Q804.692 1477.06 801.613 1481.67 Q798.558 1486.25 792.748 1486.25 Q786.937 1486.25 783.859 1481.67 Q780.803 1477.06 780.803 1468.33 Q780.803 1459.58 783.859 1455 Q786.937 1450.39 792.748 1450.39 Z" fill="#000000" fill-rule="nonzero" fill-opacity="1" /><path clip-path="url(#clip190)" d="M822.909 1454.1 Q819.298 1454.1 817.47 1457.66 Q815.664 1461.2 815.664 1468.33 Q815.664 1475.44 817.47 1479.01 Q819.298 1482.55 822.909 1482.55 Q826.544 1482.55 828.349 1479.01 Q830.178 1475.44 830.178 1468.33 Q830.178 1461.2 828.349 1457.66 Q826.544 1454.1 822.909 1454.1 M822.909 1450.39 Q828.72 1450.39 831.775 1455 Q834.854 1459.58 834.854 1468.33 Q834.854 1477.06 831.775 1481.67 Q828.72 1486.25 822.909 1486.25 Q817.099 1486.25 814.021 1481.67 Q810.965 1477.06 810.965 1468.33 Q810.965 1459.58 814.021 1455 Q817.099 1450.39 822.909 1450.39 Z" fill="#000000" fill-rule="nonzero" fill-opacity="1" /><path clip-path="url(#clip190)" d="M1237.47 1481.64 L1245.11 1481.64 L1245.11 1455.28 L1236.8 1456.95 L1236.8 1452.69 L1245.06 1451.02 L1249.73 1451.02 L1249.73 1481.64 L1257.37 1481.64 L1257.37 1485.58 L1237.47 1485.58 L1237.47 1481.64 Z" fill="#000000" fill-rule="nonzero" fill-opacity="1" /><path clip-path="url(#clip190)" d="M1276.82 1454.1 Q1273.21 1454.1 1271.38 1457.66 Q1269.57 1461.2 1269.57 1468.33 Q1269.57 1475.44 1271.38 1479.01 Q1273.21 1482.55 1276.82 1482.55 Q1280.45 1482.55 1282.26 1479.01 Q1284.09 1475.44 1284.09 1468.33 Q1284.09 1461.2 1282.26 1457.66 Q1280.45 1454.1 1276.82 1454.1 M1276.82 1450.39 Q1282.63 1450.39 1285.68 1455 Q1288.76 1459.58 1288.76 1468.33 Q1288.76 1477.06 1285.68 1481.67 Q1282.63 1486.25 1276.82 1486.25 Q1271.01 1486.25 1267.93 1481.67 Q1264.87 1477.06 1264.87 1468.33 Q1264.87 1459.58 1267.93 1455 Q1271.01 1450.39 1276.82 1450.39 Z" fill="#000000" fill-rule="nonzero" fill-opacity="1" /><path clip-path="url(#clip190)" d="M1306.98 1454.1 Q1303.37 1454.1 1301.54 1457.66 Q1299.73 1461.2 1299.73 1468.33 Q1299.73 1475.44 1301.54 1479.01 Q1303.37 1482.55 1306.98 1482.55 Q1310.61 1482.55 1312.42 1479.01 Q1314.25 1475.44 1314.25 1468.33 Q1314.25 1461.2 1312.42 1457.66 Q1310.61 1454.1 1306.98 1454.1 M1306.98 1450.39 Q1312.79 1450.39 1315.85 1455 Q1318.92 1459.58 1318.92 1468.33 Q1318.92 1477.06 1315.85 1481.67 Q1312.79 1486.25 1306.98 1486.25 Q1301.17 1486.25 1298.09 1481.67 Q1295.04 1477.06 1295.04 1468.33 Q1295.04 1459.58 1298.09 1455 Q1301.17 1450.39 1306.98 1450.39 Z" fill="#000000" fill-rule="nonzero" fill-opacity="1" /><path clip-path="url(#clip190)" d="M1337.14 1454.1 Q1333.53 1454.1 1331.7 1457.66 Q1329.9 1461.2 1329.9 1468.33 Q1329.9 1475.44 1331.7 1479.01 Q1333.53 1482.55 1337.14 1482.55 Q1340.78 1482.55 1342.58 1479.01 Q1344.41 1475.44 1344.41 1468.33 Q1344.41 1461.2 1342.58 1457.66 Q1340.78 1454.1 1337.14 1454.1 M1337.14 1450.39 Q1342.95 1450.39 1346.01 1455 Q1349.09 1459.58 1349.09 1468.33 Q1349.09 1477.06 1346.01 1481.67 Q1342.95 1486.25 1337.14 1486.25 Q1331.33 1486.25 1328.25 1481.67 Q1325.2 1477.06 1325.2 1468.33 Q1325.2 1459.58 1328.25 1455 Q1331.33 1450.39 1337.14 1450.39 Z" fill="#000000" fill-rule="nonzero" fill-opacity="1" /><path clip-path="url(#clip190)" d="M1737.39 1481.64 L1745.03 1481.64 L1745.03 1455.28 L1736.72 1456.95 L1736.72 1452.69 L1744.99 1451.02 L1749.66 1451.02 L1749.66 1481.64 L1757.3 1481.64 L1757.3 1485.58 L1737.39 1485.58 L1737.39 1481.64 Z" fill="#000000" fill-rule="nonzero" fill-opacity="1" /><path clip-path="url(#clip190)" d="M1766.79 1451.02 L1785.15 1451.02 L1785.15 1454.96 L1771.07 1454.96 L1771.07 1463.43 Q1772.09 1463.08 1773.11 1462.92 Q1774.13 1462.73 1775.15 1462.73 Q1780.93 1462.73 1784.31 1465.9 Q1787.69 1469.08 1787.69 1474.49 Q1787.69 1480.07 1784.22 1483.17 Q1780.75 1486.25 1774.43 1486.25 Q1772.25 1486.25 1769.99 1485.88 Q1767.74 1485.51 1765.33 1484.77 L1765.33 1480.07 Q1767.42 1481.2 1769.64 1481.76 Q1771.86 1482.32 1774.34 1482.32 Q1778.34 1482.32 1780.68 1480.21 Q1783.02 1478.1 1783.02 1474.49 Q1783.02 1470.88 1780.68 1468.77 Q1778.34 1466.67 1774.34 1466.67 Q1772.46 1466.67 1770.59 1467.08 Q1768.74 1467.5 1766.79 1468.38 L1766.79 1451.02 Z" fill="#000000" fill-rule="nonzero" fill-opacity="1" /><path clip-path="url(#clip190)" d="M1806.91 1454.1 Q1803.3 1454.1 1801.47 1457.66 Q1799.66 1461.2 1799.66 1468.33 Q1799.66 1475.44 1801.47 1479.01 Q1803.3 1482.55 1806.91 1482.55 Q1810.54 1482.55 1812.35 1479.01 Q1814.18 1475.44 1814.18 1468.33 Q1814.18 1461.2 1812.35 1457.66 Q1810.54 1454.1 1806.91 1454.1 M1806.91 1450.39 Q1812.72 1450.39 1815.77 1455 Q1818.85 1459.58 1818.85 1468.33 Q1818.85 1477.06 1815.77 1481.67 Q1812.72 1486.25 1806.91 1486.25 Q1801.1 1486.25 1798.02 1481.67 Q1794.96 1477.06 1794.96 1468.33 Q1794.96 1459.58 1798.02 1455 Q1801.1 1450.39 1806.91 1450.39 Z" fill="#000000" fill-rule="nonzero" fill-opacity="1" /><path clip-path="url(#clip190)" d="M1837.07 1454.1 Q1833.46 1454.1 1831.63 1457.66 Q1829.82 1461.2 1829.82 1468.33 Q1829.82 1475.44 1831.63 1479.01 Q1833.46 1482.55 1837.07 1482.55 Q1840.7 1482.55 1842.51 1479.01 Q1844.34 1475.44 1844.34 1468.33 Q1844.34 1461.2 1842.51 1457.66 Q1840.7 1454.1 1837.07 1454.1 M1837.07 1450.39 Q1842.88 1450.39 1845.93 1455 Q1849.01 1459.58 1849.01 1468.33 Q1849.01 1477.06 1845.93 1481.67 Q1842.88 1486.25 1837.07 1486.25 Q1831.26 1486.25 1828.18 1481.67 Q1825.12 1477.06 1825.12 1468.33 Q1825.12 1459.58 1828.18 1455 Q1831.26 1450.39 1837.07 1450.39 Z" fill="#000000" fill-rule="nonzero" fill-opacity="1" /><path clip-path="url(#clip190)" d="M2241.41 1481.64 L2257.73 1481.64 L2257.73 1485.58 L2235.78 1485.58 L2235.78 1481.64 Q2238.44 1478.89 2243.03 1474.26 Q2247.63 1469.61 2248.81 1468.27 Q2251.06 1465.74 2251.94 1464.01 Q2252.84 1462.25 2252.84 1460.56 Q2252.84 1457.8 2250.9 1456.07 Q2248.98 1454.33 2245.87 1454.33 Q2243.67 1454.33 2241.22 1455.09 Q2238.79 1455.86 2236.01 1457.41 L2236.01 1452.69 Q2238.84 1451.55 2241.29 1450.97 Q2243.74 1450.39 2245.78 1450.39 Q2251.15 1450.39 2254.35 1453.08 Q2257.54 1455.77 2257.54 1460.26 Q2257.54 1462.39 2256.73 1464.31 Q2255.94 1466.2 2253.84 1468.8 Q2253.26 1469.47 2250.16 1472.69 Q2247.05 1475.88 2241.41 1481.64 Z" fill="#000000" fill-rule="nonzero" fill-opacity="1" /><path clip-path="url(#clip190)" d="M2277.54 1454.1 Q2273.93 1454.1 2272.1 1457.66 Q2270.29 1461.2 2270.29 1468.33 Q2270.29 1475.44 2272.1 1479.01 Q2273.93 1482.55 2277.54 1482.55 Q2281.17 1482.55 2282.98 1479.01 Q2284.81 1475.44 2284.81 1468.33 Q2284.81 1461.2 2282.98 1457.66 Q2281.17 1454.1 2277.54 1454.1 M2277.54 1450.39 Q2283.35 1450.39 2286.41 1455 Q2289.48 1459.58 2289.48 1468.33 Q2289.48 1477.06 2286.41 1481.67 Q2283.35 1486.25 2277.54 1486.25 Q2271.73 1486.25 2268.65 1481.67 Q2265.6 1477.06 2265.6 1468.33 Q2265.6 1459.58 2268.65 1455 Q2271.73 1450.39 2277.54 1450.39 Z" fill="#000000" fill-rule="nonzero" fill-opacity="1" /><path clip-path="url(#clip190)" d="M2307.7 1454.1 Q2304.09 1454.1 2302.26 1457.66 Q2300.46 1461.2 2300.46 1468.33 Q2300.46 1475.44 2302.26 1479.01 Q2304.09 1482.55 2307.7 1482.55 Q2311.34 1482.55 2313.14 1479.01 Q2314.97 1475.44 2314.97 1468.33 Q2314.97 1461.2 2313.14 1457.66 Q2311.34 1454.1 2307.7 1454.1 M2307.7 1450.39 Q2313.51 1450.39 2316.57 1455 Q2319.65 1459.58 2319.65 1468.33 Q2319.65 1477.06 2316.57 1481.67 Q2313.51 1486.25 2307.7 1486.25 Q2301.89 1486.25 2298.81 1481.67 Q2295.76 1477.06 2295.76 1468.33 Q2295.76 1459.58 2298.81 1455 Q2301.89 1450.39 2307.7 1450.39 Z" fill="#000000" fill-rule="nonzero" fill-opacity="1" /><path clip-path="url(#clip190)" d="M2337.86 1454.1 Q2334.25 1454.1 2332.42 1457.66 Q2330.62 1461.2 2330.62 1468.33 Q2330.62 1475.44 2332.42 1479.01 Q2334.25 1482.55 2337.86 1482.55 Q2341.5 1482.55 2343.3 1479.01 Q2345.13 1475.44 2345.13 1468.33 Q2345.13 1461.2 2343.3 1457.66 Q2341.5 1454.1 2337.86 1454.1 M2337.86 1450.39 Q2343.67 1450.39 2346.73 1455 Q2349.81 1459.58 2349.81 1468.33 Q2349.81 1477.06 2346.73 1481.67 Q2343.67 1486.25 2337.86 1486.25 Q2332.05 1486.25 2328.98 1481.67 Q2325.92 1477.06 2325.92 1468.33 Q2325.92 1459.58 2328.98 1455 Q2332.05 1450.39 2337.86 1450.39 Z" fill="#000000" fill-rule="nonzero" fill-opacity="1" /><path clip-path="url(#clip190)" d="M1032.53 1520.52 L1072.73 1520.52 L1072.73 1525.93 L1055.86 1525.93 L1055.86 1568.04 L1049.4 1568.04 L1049.4 1525.93 L1032.53 1525.93 L1032.53 1520.52 Z" fill="#000000" fill-rule="nonzero" fill-opacity="1" /><path clip-path="url(#clip190)" d="M1098.09 1548.76 L1098.09 1551.62 L1071.17 1551.62 Q1071.55 1557.67 1074.79 1560.85 Q1078.07 1564 1083.9 1564 Q1087.27 1564 1090.42 1563.17 Q1093.61 1562.35 1096.72 1560.69 L1096.72 1566.23 Q1093.57 1567.57 1090.26 1568.27 Q1086.95 1568.97 1083.55 1568.97 Q1075.02 1568.97 1070.02 1564 Q1065.06 1559.04 1065.06 1550.57 Q1065.06 1541.82 1069.77 1536.69 Q1074.51 1531.54 1082.53 1531.54 Q1089.72 1531.54 1093.89 1536.18 Q1098.09 1540.8 1098.09 1548.76 M1092.24 1547.04 Q1092.17 1542.23 1089.53 1539.37 Q1086.92 1536.5 1082.59 1536.5 Q1077.69 1536.5 1074.73 1539.27 Q1071.8 1542.04 1071.36 1547.07 L1092.24 1547.04 Z" fill="#000000" fill-rule="nonzero" fill-opacity="1" /><path clip-path="url(#clip190)" d="M1135.46 1539.24 Q1137.66 1535.29 1140.71 1533.41 Q1143.77 1531.54 1147.9 1531.54 Q1153.47 1531.54 1156.5 1535.45 Q1159.52 1539.33 1159.52 1546.53 L1159.52 1568.04 L1153.63 1568.04 L1153.63 1546.72 Q1153.63 1541.59 1151.82 1539.11 Q1150.01 1536.63 1146.28 1536.63 Q1141.73 1536.63 1139.09 1539.65 Q1136.45 1542.68 1136.45 1547.9 L1136.45 1568.04 L1130.56 1568.04 L1130.56 1546.72 Q1130.56 1541.56 1128.74 1539.11 Q1126.93 1536.63 1123.14 1536.63 Q1118.65 1536.63 1116.01 1539.68 Q1113.37 1542.71 1113.37 1547.9 L1113.37 1568.04 L1107.48 1568.04 L1107.48 1532.4 L1113.37 1532.4 L1113.37 1537.93 Q1115.38 1534.66 1118.18 1533.1 Q1120.98 1531.54 1124.83 1531.54 Q1128.71 1531.54 1131.42 1533.51 Q1134.15 1535.48 1135.46 1539.24 Z" fill="#000000" fill-rule="nonzero" fill-opacity="1" /><path clip-path="url(#clip190)" d="M1176.87 1562.7 L1176.87 1581.6 L1170.98 1581.6 L1170.98 1532.4 L1176.87 1532.4 L1176.87 1537.81 Q1178.71 1534.62 1181.52 1533.1 Q1184.35 1531.54 1188.26 1531.54 Q1194.76 1531.54 1198.8 1536.69 Q1202.87 1541.85 1202.87 1550.25 Q1202.87 1558.65 1198.8 1563.81 Q1194.76 1568.97 1188.26 1568.97 Q1184.35 1568.97 1181.52 1567.44 Q1178.71 1565.88 1176.87 1562.7 M1196.79 1550.25 Q1196.79 1543.79 1194.12 1540.13 Q1191.48 1536.44 1186.83 1536.44 Q1182.18 1536.44 1179.51 1540.13 Q1176.87 1543.79 1176.87 1550.25 Q1176.87 1556.71 1179.51 1560.4 Q1182.18 1564.07 1186.83 1564.07 Q1191.48 1564.07 1194.12 1560.4 Q1196.79 1556.71 1196.79 1550.25 Z" fill="#000000" fill-rule="nonzero" fill-opacity="1" /><path clip-path="url(#clip190)" d="M1243.07 1548.76 L1243.07 1551.62 L1216.15 1551.62 Q1216.53 1557.67 1219.77 1560.85 Q1223.05 1564 1228.88 1564 Q1232.25 1564 1235.4 1563.17 Q1238.58 1562.35 1241.7 1560.69 L1241.7 1566.23 Q1238.55 1567.57 1235.24 1568.27 Q1231.93 1568.97 1228.53 1568.97 Q1220 1568.97 1215 1564 Q1210.03 1559.04 1210.03 1550.57 Q1210.03 1541.82 1214.74 1536.69 Q1219.49 1531.54 1227.51 1531.54 Q1234.7 1531.54 1238.87 1536.18 Q1243.07 1540.8 1243.07 1548.76 M1237.22 1547.04 Q1237.15 1542.23 1234.51 1539.37 Q1231.9 1536.5 1227.57 1536.5 Q1222.67 1536.5 1219.71 1539.27 Q1216.78 1542.04 1216.34 1547.07 L1237.22 1547.04 Z" fill="#000000" fill-rule="nonzero" fill-opacity="1" /><path clip-path="url(#clip190)" d="M1273.34 1537.87 Q1272.35 1537.3 1271.18 1537.04 Q1270.03 1536.76 1268.63 1536.76 Q1263.67 1536.76 1260.99 1540 Q1258.35 1543.22 1258.35 1549.27 L1258.35 1568.04 L1252.46 1568.04 L1252.46 1532.4 L1258.35 1532.4 L1258.35 1537.93 Q1260.2 1534.69 1263.16 1533.13 Q1266.12 1531.54 1270.35 1531.54 Q1270.95 1531.54 1271.69 1531.63 Q1272.42 1531.7 1273.31 1531.85 L1273.34 1537.87 Z" fill="#000000" fill-rule="nonzero" fill-opacity="1" /><path clip-path="url(#clip190)" d="M1295.68 1550.12 Q1288.59 1550.12 1285.85 1551.75 Q1283.11 1553.37 1283.11 1557.29 Q1283.11 1560.4 1285.15 1562.25 Q1287.22 1564.07 1290.75 1564.07 Q1295.62 1564.07 1298.55 1560.63 Q1301.51 1557.16 1301.51 1551.43 L1301.51 1550.12 L1295.68 1550.12 M1307.37 1547.71 L1307.37 1568.04 L1301.51 1568.04 L1301.51 1562.63 Q1299.5 1565.88 1296.51 1567.44 Q1293.52 1568.97 1289.19 1568.97 Q1283.72 1568.97 1280.47 1565.91 Q1277.26 1562.82 1277.26 1557.67 Q1277.26 1551.65 1281.27 1548.6 Q1285.31 1545.54 1293.3 1545.54 L1301.51 1545.54 L1301.51 1544.97 Q1301.51 1540.93 1298.84 1538.73 Q1296.19 1536.5 1291.39 1536.5 Q1288.33 1536.5 1285.44 1537.23 Q1282.54 1537.97 1279.87 1539.43 L1279.87 1534.02 Q1283.08 1532.78 1286.1 1532.17 Q1289.13 1531.54 1291.99 1531.54 Q1299.73 1531.54 1303.55 1535.55 Q1307.37 1539.56 1307.37 1547.71 Z" fill="#000000" fill-rule="nonzero" fill-opacity="1" /><path clip-path="url(#clip190)" d="M1325.22 1522.27 L1325.22 1532.4 L1337.28 1532.4 L1337.28 1536.95 L1325.22 1536.95 L1325.22 1556.3 Q1325.22 1560.66 1326.4 1561.9 Q1327.61 1563.14 1331.27 1563.14 L1337.28 1563.14 L1337.28 1568.04 L1331.27 1568.04 Q1324.49 1568.04 1321.91 1565.53 Q1319.33 1562.98 1319.33 1556.3 L1319.33 1536.95 L1315.04 1536.95 L1315.04 1532.4 L1319.33 1532.4 L1319.33 1522.27 L1325.22 1522.27 Z" fill="#000000" fill-rule="nonzero" fill-opacity="1" /><path clip-path="url(#clip190)" d="M1344.38 1553.98 L1344.38 1532.4 L1350.24 1532.4 L1350.24 1553.75 Q1350.24 1558.81 1352.21 1561.36 Q1354.19 1563.87 1358.13 1563.87 Q1362.87 1563.87 1365.61 1560.85 Q1368.38 1557.83 1368.38 1552.61 L1368.38 1532.4 L1374.24 1532.4 L1374.24 1568.04 L1368.38 1568.04 L1368.38 1562.57 Q1366.25 1565.82 1363.42 1567.41 Q1360.61 1568.97 1356.89 1568.97 Q1350.75 1568.97 1347.57 1565.15 Q1344.38 1561.33 1344.38 1553.98 M1359.12 1531.54 L1359.12 1531.54 Z" fill="#000000" fill-rule="nonzero" fill-opacity="1" /><path clip-path="url(#clip190)" d="M1406.96 1537.87 Q1405.97 1537.3 1404.79 1537.04 Q1403.65 1536.76 1402.25 1536.76 Q1397.28 1536.76 1394.61 1540 Q1391.97 1543.22 1391.97 1549.27 L1391.97 1568.04 L1386.08 1568.04 L1386.08 1532.4 L1391.97 1532.4 L1391.97 1537.93 Q1393.81 1534.69 1396.77 1533.13 Q1399.73 1531.54 1403.97 1531.54 Q1404.57 1531.54 1405.3 1531.63 Q1406.03 1531.7 1406.93 1531.85 L1406.96 1537.87 Z" fill="#000000" fill-rule="nonzero" fill-opacity="1" /><path clip-path="url(#clip190)" d="M1442.16 1548.76 L1442.16 1551.62 L1415.23 1551.62 Q1415.61 1557.67 1418.86 1560.85 Q1422.14 1564 1427.96 1564 Q1431.34 1564 1434.49 1563.17 Q1437.67 1562.35 1440.79 1560.69 L1440.79 1566.23 Q1437.64 1567.57 1434.33 1568.27 Q1431.02 1568.97 1427.61 1568.97 Q1419.08 1568.97 1414.09 1564 Q1409.12 1559.04 1409.12 1550.57 Q1409.12 1541.82 1413.83 1536.69 Q1418.57 1531.54 1426.6 1531.54 Q1433.79 1531.54 1437.96 1536.18 Q1442.16 1540.8 1442.16 1548.76 M1436.3 1547.04 Q1436.24 1542.23 1433.6 1539.37 Q1430.99 1536.5 1426.66 1536.5 Q1421.76 1536.5 1418.8 1539.27 Q1415.87 1542.04 1415.42 1547.07 L1436.3 1547.04 Z" fill="#000000" fill-rule="nonzero" fill-opacity="1" /><path clip-path="url(#clip190)" d="M1486.56 1518.58 Q1482.3 1525.9 1480.23 1533.06 Q1478.16 1540.23 1478.16 1547.58 Q1478.16 1554.93 1480.23 1562.16 Q1482.33 1569.35 1486.56 1576.64 L1481.47 1576.64 Q1476.69 1569.16 1474.31 1561.93 Q1471.95 1554.71 1471.95 1547.58 Q1471.95 1540.48 1474.31 1533.29 Q1476.66 1526.09 1481.47 1518.58 L1486.56 1518.58 Z" fill="#000000" fill-rule="nonzero" fill-opacity="1" /><path clip-path="url(#clip190)" d="M1498.18 1520.52 L1504.61 1520.52 L1504.61 1540.61 L1525.93 1520.52 L1534.21 1520.52 L1510.62 1542.68 L1535.89 1568.04 L1527.43 1568.04 L1504.61 1545.16 L1504.61 1568.04 L1498.18 1568.04 L1498.18 1520.52 Z" fill="#000000" fill-rule="nonzero" fill-opacity="1" /><path clip-path="url(#clip190)" d="M1539.75 1518.58 L1544.84 1518.58 Q1549.61 1526.09 1551.97 1533.29 Q1554.36 1540.48 1554.36 1547.58 Q1554.36 1554.71 1551.97 1561.93 Q1549.61 1569.16 1544.84 1576.64 L1539.75 1576.64 Q1543.98 1569.35 1546.05 1562.16 Q1548.15 1554.93 1548.15 1547.58 Q1548.15 1540.23 1546.05 1533.06 Q1543.98 1525.9 1539.75 1518.58 Z" fill="#000000" fill-rule="nonzero" fill-opacity="1" /><polyline clip-path="url(#clip190)" style="stroke:#000000; stroke-linecap:round; stroke-linejoin:round; stroke-width:4; stroke-opacity:1; fill:none" points="234.125,1423.18 234.125,123.472 "/>
<polyline clip-path="url(#clip190)" style="stroke:#000000; stroke-linecap:round; stroke-linejoin:round; stroke-width:4; stroke-opacity:1; fill:none" points="234.125,1386.4 253.023,1386.4 "/>
<polyline clip-path="url(#clip190)" style="stroke:#000000; stroke-linecap:round; stroke-linejoin:round; stroke-width:4; stroke-opacity:1; fill:none" points="234.125,971.965 253.023,971.965 "/>
<polyline clip-path="url(#clip190)" style="stroke:#000000; stroke-linecap:round; stroke-linejoin:round; stroke-width:4; stroke-opacity:1; fill:none" points="234.125,557.534 253.023,557.534 "/>
<polyline clip-path="url(#clip190)" style="stroke:#000000; stroke-linecap:round; stroke-linejoin:round; stroke-width:4; stroke-opacity:1; fill:none" points="234.125,143.103 253.023,143.103 "/>
<path clip-path="url(#clip190)" d="M186.181 1372.19 Q182.57 1372.19 180.741 1375.76 Q178.936 1379.3 178.936 1386.43 Q178.936 1393.54 180.741 1397.1 Q182.57 1400.64 186.181 1400.64 Q189.815 1400.64 191.621 1397.1 Q193.45 1393.54 193.45 1386.43 Q193.45 1379.3 191.621 1375.76 Q189.815 1372.19 186.181 1372.19 M186.181 1368.49 Q191.991 1368.49 195.047 1373.1 Q198.125 1377.68 198.125 1386.43 Q198.125 1395.16 195.047 1399.76 Q191.991 1404.35 186.181 1404.35 Q180.371 1404.35 177.292 1399.76 Q174.237 1395.16 174.237 1386.43 Q174.237 1377.68 177.292 1373.1 Q180.371 1368.49 186.181 1368.49 Z" fill="#000000" fill-rule="nonzero" fill-opacity="1" /><path clip-path="url(#clip190)" d="M116.668 985.31 L124.306 985.31 L124.306 958.944 L115.996 960.611 L115.996 956.351 L124.26 954.685 L128.936 954.685 L128.936 985.31 L136.575 985.31 L136.575 989.245 L116.668 989.245 L116.668 985.31 Z" fill="#000000" fill-rule="nonzero" fill-opacity="1" /><path clip-path="url(#clip190)" d="M156.019 957.763 Q152.408 957.763 150.579 961.328 Q148.774 964.87 148.774 972 Q148.774 979.106 150.579 982.671 Q152.408 986.212 156.019 986.212 Q159.653 986.212 161.459 982.671 Q163.288 979.106 163.288 972 Q163.288 964.87 161.459 961.328 Q159.653 957.763 156.019 957.763 M156.019 954.06 Q161.829 954.06 164.885 958.666 Q167.964 963.25 167.964 972 Q167.964 980.726 164.885 985.333 Q161.829 989.916 156.019 989.916 Q150.209 989.916 147.13 985.333 Q144.075 980.726 144.075 972 Q144.075 963.25 147.13 958.666 Q150.209 954.06 156.019 954.06 Z" fill="#000000" fill-rule="nonzero" fill-opacity="1" /><path clip-path="url(#clip190)" d="M186.181 957.763 Q182.57 957.763 180.741 961.328 Q178.936 964.87 178.936 972 Q178.936 979.106 180.741 982.671 Q182.57 986.212 186.181 986.212 Q189.815 986.212 191.621 982.671 Q193.45 979.106 193.45 972 Q193.45 964.87 191.621 961.328 Q189.815 957.763 186.181 957.763 M186.181 954.06 Q191.991 954.06 195.047 958.666 Q198.125 963.25 198.125 972 Q198.125 980.726 195.047 985.333 Q191.991 989.916 186.181 989.916 Q180.371 989.916 177.292 985.333 Q174.237 980.726 174.237 972 Q174.237 963.25 177.292 958.666 Q180.371 954.06 186.181 954.06 Z" fill="#000000" fill-rule="nonzero" fill-opacity="1" /><path clip-path="url(#clip190)" d="M119.885 570.879 L136.204 570.879 L136.204 574.814 L114.26 574.814 L114.26 570.879 Q116.922 568.124 121.505 563.495 Q126.112 558.842 127.292 557.499 Q129.538 554.976 130.417 553.24 Q131.32 551.481 131.32 549.791 Q131.32 547.036 129.376 545.3 Q127.455 543.564 124.353 543.564 Q122.154 543.564 119.7 544.328 Q117.269 545.092 114.492 546.643 L114.492 541.921 Q117.316 540.786 119.769 540.208 Q122.223 539.629 124.26 539.629 Q129.63 539.629 132.825 542.314 Q136.019 544.999 136.019 549.49 Q136.019 551.62 135.209 553.541 Q134.422 555.439 132.316 558.032 Q131.737 558.703 128.635 561.92 Q125.533 565.115 119.885 570.879 Z" fill="#000000" fill-rule="nonzero" fill-opacity="1" /><path clip-path="url(#clip190)" d="M156.019 543.333 Q152.408 543.333 150.579 546.897 Q148.774 550.439 148.774 557.569 Q148.774 564.675 150.579 568.24 Q152.408 571.782 156.019 571.782 Q159.653 571.782 161.459 568.24 Q163.288 564.675 163.288 557.569 Q163.288 550.439 161.459 546.897 Q159.653 543.333 156.019 543.333 M156.019 539.629 Q161.829 539.629 164.885 544.235 Q167.964 548.819 167.964 557.569 Q167.964 566.295 164.885 570.902 Q161.829 575.485 156.019 575.485 Q150.209 575.485 147.13 570.902 Q144.075 566.295 144.075 557.569 Q144.075 548.819 147.13 544.235 Q150.209 539.629 156.019 539.629 Z" fill="#000000" fill-rule="nonzero" fill-opacity="1" /><path clip-path="url(#clip190)" d="M186.181 543.333 Q182.57 543.333 180.741 546.897 Q178.936 550.439 178.936 557.569 Q178.936 564.675 180.741 568.24 Q182.57 571.782 186.181 571.782 Q189.815 571.782 191.621 568.24 Q193.45 564.675 193.45 557.569 Q193.45 550.439 191.621 546.897 Q189.815 543.333 186.181 543.333 M186.181 539.629 Q191.991 539.629 195.047 544.235 Q198.125 548.819 198.125 557.569 Q198.125 566.295 195.047 570.902 Q191.991 575.485 186.181 575.485 Q180.371 575.485 177.292 570.902 Q174.237 566.295 174.237 557.569 Q174.237 548.819 177.292 544.235 Q180.371 539.629 186.181 539.629 Z" fill="#000000" fill-rule="nonzero" fill-opacity="1" /><path clip-path="url(#clip190)" d="M130.024 141.749 Q133.38 142.467 135.255 144.735 Q137.154 147.004 137.154 150.337 Q137.154 155.453 133.635 158.253 Q130.117 161.054 123.635 161.054 Q121.459 161.054 119.144 160.615 Q116.853 160.198 114.399 159.341 L114.399 154.828 Q116.343 155.962 118.658 156.541 Q120.973 157.119 123.496 157.119 Q127.894 157.119 130.186 155.383 Q132.501 153.647 132.501 150.337 Q132.501 147.281 130.348 145.568 Q128.218 143.832 124.399 143.832 L120.371 143.832 L120.371 139.99 L124.584 139.99 Q128.033 139.99 129.862 138.624 Q131.691 137.235 131.691 134.642 Q131.691 131.98 129.792 130.568 Q127.917 129.133 124.399 129.133 Q122.478 129.133 120.279 129.55 Q118.08 129.967 115.441 130.846 L115.441 126.68 Q118.103 125.939 120.418 125.568 Q122.755 125.198 124.816 125.198 Q130.14 125.198 133.242 127.629 Q136.343 130.036 136.343 134.156 Q136.343 137.027 134.7 139.017 Q133.056 140.985 130.024 141.749 Z" fill="#000000" fill-rule="nonzero" fill-opacity="1" /><path clip-path="url(#clip190)" d="M156.019 128.902 Q152.408 128.902 150.579 132.467 Q148.774 136.008 148.774 143.138 Q148.774 150.244 150.579 153.809 Q152.408 157.351 156.019 157.351 Q159.653 157.351 161.459 153.809 Q163.288 150.244 163.288 143.138 Q163.288 136.008 161.459 132.467 Q159.653 128.902 156.019 128.902 M156.019 125.198 Q161.829 125.198 164.885 129.805 Q167.964 134.388 167.964 143.138 Q167.964 151.865 164.885 156.471 Q161.829 161.054 156.019 161.054 Q150.209 161.054 147.13 156.471 Q144.075 151.865 144.075 143.138 Q144.075 134.388 147.13 129.805 Q150.209 125.198 156.019 125.198 Z" fill="#000000" fill-rule="nonzero" fill-opacity="1" /><path clip-path="url(#clip190)" d="M186.181 128.902 Q182.57 128.902 180.741 132.467 Q178.936 136.008 178.936 143.138 Q178.936 150.244 180.741 153.809 Q182.57 157.351 186.181 157.351 Q189.815 157.351 191.621 153.809 Q193.45 150.244 193.45 143.138 Q193.45 136.008 191.621 132.467 Q189.815 128.902 186.181 128.902 M186.181 125.198 Q191.991 125.198 195.047 129.805 Q198.125 134.388 198.125 143.138 Q198.125 151.865 195.047 156.471 Q191.991 161.054 186.181 161.054 Q180.371 161.054 177.292 156.471 Q174.237 151.865 174.237 143.138 Q174.237 134.388 177.292 129.805 Q180.371 125.198 186.181 125.198 Z" fill="#000000" fill-rule="nonzero" fill-opacity="1" /><path clip-path="url(#clip190)" d="M22.818 971.315 L58.657 984.365 L58.657 958.234 L22.818 971.315 M64.0042 993.086 L16.4842 974.944 L16.4842 967.655 L64.0042 949.545 L64.0042 993.086 Z" fill="#000000" fill-rule="nonzero" fill-opacity="1" /><path clip-path="url(#clip190)" d="M16.4842 942.606 L16.4842 936.177 L35.9632 936.177 L35.9632 912.815 L16.4842 912.815 L16.4842 906.385 L64.0042 906.385 L64.0042 912.815 L41.3741 912.815 L41.3741 936.177 L64.0042 936.177 L64.0042 942.606 L16.4842 942.606 Z" fill="#000000" fill-rule="nonzero" fill-opacity="1" /><path clip-path="url(#clip190)" d="M14.5426 838.336 Q21.8632 842.601 29.0246 844.67 Q36.186 846.738 43.5384 846.738 Q50.8908 846.738 58.1159 844.67 Q65.3091 842.569 72.5979 838.336 L72.5979 843.428 Q65.1182 848.203 57.8931 850.59 Q50.668 852.945 43.5384 852.945 Q36.4406 852.945 29.2474 850.59 Q22.0542 848.234 14.5426 843.428 L14.5426 838.336 Z" fill="#000000" fill-rule="nonzero" fill-opacity="1" /><path clip-path="url(#clip190)" d="M14.479 827.196 L14.479 821.307 L43.7294 821.307 L28.3562 803.834 L28.3562 796.354 L45.0344 815.26 L64.0042 795.558 L64.0042 803.197 L46.5939 821.307 L64.0042 821.307 L64.0042 827.196 L14.479 827.196 Z" fill="#000000" fill-rule="nonzero" fill-opacity="1" /><path clip-path="url(#clip190)" d="M16.4842 788.97 L16.4842 782.54 L60.694 782.54 Q69.2877 782.54 73.1708 785.819 Q77.0539 789.065 77.0539 796.29 L77.0539 798.741 L71.643 798.741 L71.643 796.736 Q71.643 792.471 69.2559 790.72 Q66.8687 788.97 60.694 788.97 L16.4842 788.97 Z" fill="#000000" fill-rule="nonzero" fill-opacity="1" /><path clip-path="url(#clip190)" d="M37.3318 769.172 L37.3318 762.457 L45.4163 762.457 L45.4163 769.172 L37.3318 769.172 Z" fill="#000000" fill-rule="nonzero" fill-opacity="1" /><path clip-path="url(#clip190)" d="M35.1993 721.525 Q31.2526 719.329 29.3747 716.273 Q27.4968 713.218 27.4968 709.08 Q27.4968 703.51 31.4117 700.486 Q35.2948 697.463 42.4881 697.463 L64.0042 697.463 L64.0042 703.351 L42.679 703.351 Q37.5546 703.351 35.072 705.165 Q32.5894 706.979 32.5894 710.703 Q32.5894 715.255 35.6131 717.897 Q38.6368 720.538 43.8567 720.538 L64.0042 720.538 L64.0042 726.427 L42.679 726.427 Q37.5228 726.427 35.072 728.241 Q32.5894 730.055 32.5894 733.843 Q32.5894 738.331 35.6449 740.972 Q38.6686 743.614 43.8567 743.614 L64.0042 743.614 L64.0042 749.502 L28.3562 749.502 L28.3562 743.614 L33.8944 743.614 Q30.616 741.609 29.0564 738.808 Q27.4968 736.007 27.4968 732.156 Q27.4968 728.273 29.4702 725.567 Q31.4436 722.83 35.1993 721.525 Z" fill="#000000" fill-rule="nonzero" fill-opacity="1" /><path clip-path="url(#clip190)" d="M32.4621 671.968 Q32.4621 676.679 36.1542 679.416 Q39.8145 682.153 46.212 682.153 Q52.6095 682.153 56.3017 679.448 Q59.9619 676.71 59.9619 671.968 Q59.9619 667.289 56.2698 664.552 Q52.5777 661.815 46.212 661.815 Q39.8781 661.815 36.186 664.552 Q32.4621 667.289 32.4621 671.968 M27.4968 671.968 Q27.4968 664.329 32.4621 659.969 Q37.4273 655.608 46.212 655.608 Q54.9649 655.608 59.9619 659.969 Q64.9272 664.329 64.9272 671.968 Q64.9272 679.639 59.9619 683.999 Q54.9649 688.328 46.212 688.328 Q37.4273 688.328 32.4621 683.999 Q27.4968 679.639 27.4968 671.968 Z" fill="#000000" fill-rule="nonzero" fill-opacity="1" /><path clip-path="url(#clip190)" d="M14.479 645.9 L14.479 640.044 L64.0042 640.044 L64.0042 645.9 L14.479 645.9 Z" fill="#000000" fill-rule="nonzero" fill-opacity="1" /><path clip-path="url(#clip190)" d="M29.7885 629.572 L29.7885 603.887 L32.8122 603.887 L32.8122 629.572 L29.7885 629.572 Z" fill="#000000" fill-rule="nonzero" fill-opacity="1" /><path clip-path="url(#clip190)" d="M39.2416 594.561 L39.2416 588.068 L19.7943 588.068 L21.0993 595.166 L17.4072 595.166 L16.1659 587.845 L16.1659 583.485 L39.2416 583.485 L39.2416 576.96 L42.7427 576.96 L42.7427 594.561 L39.2416 594.561 Z" fill="#000000" fill-rule="nonzero" fill-opacity="1" /><path clip-path="url(#clip190)" d="M14.5426 568.175 L14.5426 563.083 Q22.0542 558.308 29.2474 555.953 Q36.4406 553.566 43.5384 553.566 Q50.668 553.566 57.8931 555.953 Q65.1182 558.308 72.5979 563.083 L72.5979 568.175 Q65.3091 563.942 58.1159 561.873 Q50.8908 559.772 43.5384 559.772 Q36.186 559.772 29.0246 561.873 Q21.8632 563.942 14.5426 568.175 Z" fill="#000000" fill-rule="nonzero" fill-opacity="1" /><path clip-path="url(#clip190)" d="M541.005 14.0809 L541.005 22.0612 Q536.347 19.8332 532.215 18.7395 Q528.083 17.6457 524.235 17.6457 Q517.551 17.6457 513.905 20.2383 Q510.3 22.8309 510.3 27.611 Q510.3 31.6214 512.69 33.6873 Q515.12 35.7128 521.845 36.9686 L526.787 37.9813 Q535.942 39.7232 540.276 44.1387 Q544.651 48.5136 544.651 55.8863 Q544.651 64.6767 538.737 69.2137 Q532.863 73.7508 521.48 73.7508 Q517.186 73.7508 512.325 72.7785 Q507.504 71.8063 502.319 69.9024 L502.319 61.4765 Q507.302 64.2716 512.082 65.6895 Q516.862 67.1073 521.48 67.1073 Q528.488 67.1073 532.296 64.3527 Q536.104 61.598 536.104 56.4939 Q536.104 52.0379 533.349 49.5264 Q530.635 47.0148 524.397 45.759 L519.414 44.7868 Q510.259 42.9639 506.168 39.075 Q502.076 35.1862 502.076 28.2591 Q502.076 20.2383 507.707 15.6203 Q513.378 11.0023 523.303 11.0023 Q527.556 11.0023 531.972 11.7719 Q536.387 12.5416 541.005 14.0809 Z" fill="#000000" fill-rule="nonzero" fill-opacity="1" /><path clip-path="url(#clip190)" d="M595.895 48.0275 L595.895 51.6733 L561.625 51.6733 Q562.111 59.3701 566.243 63.421 Q570.415 67.4314 577.828 67.4314 Q582.122 67.4314 586.133 66.3781 Q590.183 65.3249 594.153 63.2184 L594.153 70.267 Q590.143 71.9684 585.93 72.8596 Q581.717 73.7508 577.383 73.7508 Q566.526 73.7508 560.166 67.4314 Q553.847 61.1119 553.847 50.3365 Q553.847 39.1965 559.842 32.6746 Q565.878 26.1121 576.086 26.1121 Q585.241 26.1121 590.548 32.0264 Q595.895 37.9003 595.895 48.0275 M588.442 45.84 Q588.361 39.7232 584.998 36.0774 Q581.677 32.4315 576.167 32.4315 Q569.929 32.4315 566.162 35.9558 Q562.435 39.4801 561.868 45.8805 L588.442 45.84 Z" fill="#000000" fill-rule="nonzero" fill-opacity="1" /><path clip-path="url(#clip190)" d="M645.843 45.1919 L645.843 72.576 L638.389 72.576 L638.389 45.4349 Q638.389 38.994 635.878 35.7938 Q633.366 32.5936 628.343 32.5936 Q622.307 32.5936 618.823 36.4419 Q615.34 40.2903 615.34 46.9338 L615.34 72.576 L607.845 72.576 L607.845 27.2059 L615.34 27.2059 L615.34 34.2544 Q618.013 30.163 621.618 28.1376 Q625.264 26.1121 630.004 26.1121 Q637.822 26.1121 641.832 30.9732 Q645.843 35.7938 645.843 45.1919 Z" fill="#000000" fill-rule="nonzero" fill-opacity="1" /><path clip-path="url(#clip190)" d="M689.633 28.5427 L689.633 35.5912 Q686.473 33.9709 683.071 33.1607 Q679.668 32.3505 676.022 32.3505 Q670.472 32.3505 667.677 34.0519 Q664.923 35.7533 664.923 39.156 Q664.923 41.7486 666.908 43.2475 Q668.893 44.7058 674.888 46.0426 L677.44 46.6097 Q685.38 48.3111 688.701 51.4303 Q692.064 54.509 692.064 60.0587 Q692.064 66.3781 687.041 70.0644 Q682.058 73.7508 673.308 73.7508 Q669.662 73.7508 665.692 73.0216 Q661.763 72.3329 657.388 70.9151 L657.388 63.2184 Q661.52 65.3654 665.53 66.4591 Q669.541 67.5124 673.47 67.5124 Q678.736 67.5124 681.572 65.73 Q684.407 63.9071 684.407 60.6258 Q684.407 57.5877 682.342 55.9673 Q680.316 54.3469 673.389 52.8481 L670.796 52.2405 Q663.869 50.7821 660.791 47.7845 Q657.712 44.7463 657.712 39.4801 Q657.712 33.0797 662.249 29.5959 Q666.786 26.1121 675.131 26.1121 Q679.263 26.1121 682.909 26.7198 Q686.554 27.3274 689.633 28.5427 Z" fill="#000000" fill-rule="nonzero" fill-opacity="1" /><path clip-path="url(#clip190)" d="M703.933 27.2059 L711.387 27.2059 L711.387 72.576 L703.933 72.576 L703.933 27.2059 M703.933 9.54393 L711.387 9.54393 L711.387 18.9825 L703.933 18.9825 L703.933 9.54393 Z" fill="#000000" fill-rule="nonzero" fill-opacity="1" /><path clip-path="url(#clip190)" d="M759.552 49.9314 Q759.552 41.7081 756.149 37.0496 Q752.787 32.3505 746.872 32.3505 Q740.958 32.3505 737.555 37.0496 Q734.193 41.7081 734.193 49.9314 Q734.193 58.1548 737.555 62.8538 Q740.958 67.5124 746.872 67.5124 Q752.787 67.5124 756.149 62.8538 Q759.552 58.1548 759.552 49.9314 M734.193 34.0924 Q736.543 30.0415 740.107 28.0971 Q743.713 26.1121 748.695 26.1121 Q756.959 26.1121 762.104 32.6746 Q767.289 39.2371 767.289 49.9314 Q767.289 60.6258 762.104 67.1883 Q756.959 73.7508 748.695 73.7508 Q743.713 73.7508 740.107 71.8063 Q736.543 69.8214 734.193 65.7705 L734.193 72.576 L726.699 72.576 L726.699 9.54393 L734.193 9.54393 L734.193 34.0924 Z" fill="#000000" fill-rule="nonzero" fill-opacity="1" /><path clip-path="url(#clip190)" d="M779.644 9.54393 L787.098 9.54393 L787.098 72.576 L779.644 72.576 L779.644 9.54393 Z" fill="#000000" fill-rule="nonzero" fill-opacity="1" /><path clip-path="url(#clip190)" d="M841.502 48.0275 L841.502 51.6733 L807.231 51.6733 Q807.717 59.3701 811.849 63.421 Q816.021 67.4314 823.435 67.4314 Q827.728 67.4314 831.739 66.3781 Q835.79 65.3249 839.76 63.2184 L839.76 70.267 Q835.749 71.9684 831.536 72.8596 Q827.323 73.7508 822.989 73.7508 Q812.132 73.7508 805.773 67.4314 Q799.453 61.1119 799.453 50.3365 Q799.453 39.1965 805.449 32.6746 Q811.484 26.1121 821.693 26.1121 Q830.848 26.1121 836.154 32.0264 Q841.502 37.9003 841.502 48.0275 M834.048 45.84 Q833.967 39.7232 830.605 36.0774 Q827.283 32.4315 821.774 32.4315 Q815.535 32.4315 811.768 35.9558 Q808.041 39.4801 807.474 45.8805 L834.048 45.84 Z" fill="#000000" fill-rule="nonzero" fill-opacity="1" /><path clip-path="url(#clip190)" d="M918.914 48.0275 L918.914 51.6733 L884.644 51.6733 Q885.13 59.3701 889.262 63.421 Q893.434 67.4314 900.847 67.4314 Q905.141 67.4314 909.152 66.3781 Q913.203 65.3249 917.172 63.2184 L917.172 70.267 Q913.162 71.9684 908.949 72.8596 Q904.736 73.7508 900.402 73.7508 Q889.545 73.7508 883.185 67.4314 Q876.866 61.1119 876.866 50.3365 Q876.866 39.1965 882.861 32.6746 Q888.897 26.1121 899.105 26.1121 Q908.26 26.1121 913.567 32.0264 Q918.914 37.9003 918.914 48.0275 M911.461 45.84 Q911.38 39.7232 908.017 36.0774 Q904.696 32.4315 899.186 32.4315 Q892.948 32.4315 889.181 35.9558 Q885.454 39.4801 884.887 45.8805 L911.461 45.84 Z" fill="#000000" fill-rule="nonzero" fill-opacity="1" /><path clip-path="url(#clip190)" d="M968.862 45.1919 L968.862 72.576 L961.408 72.576 L961.408 45.4349 Q961.408 38.994 958.897 35.7938 Q956.385 32.5936 951.362 32.5936 Q945.326 32.5936 941.842 36.4419 Q938.359 40.2903 938.359 46.9338 L938.359 72.576 L930.864 72.576 L930.864 27.2059 L938.359 27.2059 L938.359 34.2544 Q941.032 30.163 944.638 28.1376 Q948.283 26.1121 953.023 26.1121 Q960.841 26.1121 964.852 30.9732 Q968.862 35.7938 968.862 45.1919 Z" fill="#000000" fill-rule="nonzero" fill-opacity="1" /><path clip-path="url(#clip190)" d="M991.101 14.324 L991.101 27.2059 L1006.45 27.2059 L1006.45 32.9987 L991.101 32.9987 L991.101 57.6282 Q991.101 63.1779 992.6 64.7578 Q994.14 66.3376 998.798 66.3376 L1006.45 66.3376 L1006.45 72.576 L998.798 72.576 Q990.17 72.576 986.889 69.3758 Q983.607 66.1351 983.607 57.6282 L983.607 32.9987 L978.139 32.9987 L978.139 27.2059 L983.607 27.2059 L983.607 14.324 L991.101 14.324 Z" fill="#000000" fill-rule="nonzero" fill-opacity="1" /><path clip-path="url(#clip190)" d="M1053.97 45.1919 L1053.97 72.576 L1046.52 72.576 L1046.52 45.4349 Q1046.52 38.994 1044.01 35.7938 Q1041.49 32.5936 1036.47 32.5936 Q1030.44 32.5936 1026.95 36.4419 Q1023.47 40.2903 1023.47 46.9338 L1023.47 72.576 L1015.97 72.576 L1015.97 9.54393 L1023.47 9.54393 L1023.47 34.2544 Q1026.14 30.163 1029.75 28.1376 Q1033.39 26.1121 1038.13 26.1121 Q1045.95 26.1121 1049.96 30.9732 Q1053.97 35.7938 1053.97 45.1919 Z" fill="#000000" fill-rule="nonzero" fill-opacity="1" /><path clip-path="url(#clip190)" d="M1089.46 49.7694 Q1080.42 49.7694 1076.94 51.8354 Q1073.46 53.9013 1073.46 58.8839 Q1073.46 62.8538 1076.05 65.2034 Q1078.68 67.5124 1083.18 67.5124 Q1089.38 67.5124 1093.1 63.1374 Q1096.87 58.7219 1096.87 51.4303 L1096.87 49.7694 L1089.46 49.7694 M1104.32 46.6907 L1104.32 72.576 L1096.87 72.576 L1096.87 65.6895 Q1094.32 69.8214 1090.51 71.8063 Q1086.7 73.7508 1081.19 73.7508 Q1074.23 73.7508 1070.09 69.8619 Q1066 65.9325 1066 59.3701 Q1066 51.7138 1071.11 47.825 Q1076.25 43.9361 1086.42 43.9361 L1096.87 43.9361 L1096.87 43.2069 Q1096.87 38.0623 1093.47 35.2672 Q1090.11 32.4315 1083.99 32.4315 Q1080.1 32.4315 1076.41 33.3632 Q1072.73 34.295 1069.32 36.1584 L1069.32 29.2718 Q1073.42 27.692 1077.26 26.9223 Q1081.11 26.1121 1084.76 26.1121 Q1094.6 26.1121 1099.46 31.2163 Q1104.32 36.3204 1104.32 46.6907 Z" fill="#000000" fill-rule="nonzero" fill-opacity="1" /><path clip-path="url(#clip190)" d="M1119.68 9.54393 L1127.13 9.54393 L1127.13 72.576 L1119.68 72.576 L1119.68 9.54393 Z" fill="#000000" fill-rule="nonzero" fill-opacity="1" /><path clip-path="url(#clip190)" d="M1149.94 65.7705 L1149.94 89.8329 L1142.44 89.8329 L1142.44 27.2059 L1149.94 27.2059 L1149.94 34.0924 Q1152.29 30.0415 1155.85 28.0971 Q1159.46 26.1121 1164.44 26.1121 Q1172.7 26.1121 1177.85 32.6746 Q1183.03 39.2371 1183.03 49.9314 Q1183.03 60.6258 1177.85 67.1883 Q1172.7 73.7508 1164.44 73.7508 Q1159.46 73.7508 1155.85 71.8063 Q1152.29 69.8214 1149.94 65.7705 M1175.3 49.9314 Q1175.3 41.7081 1171.89 37.0496 Q1168.53 32.3505 1162.62 32.3505 Q1156.7 32.3505 1153.3 37.0496 Q1149.94 41.7081 1149.94 49.9314 Q1149.94 58.1548 1153.3 62.8538 Q1156.7 67.5124 1162.62 67.5124 Q1168.53 67.5124 1171.89 62.8538 Q1175.3 58.1548 1175.3 49.9314 Z" fill="#000000" fill-rule="nonzero" fill-opacity="1" /><path clip-path="url(#clip190)" d="M1214.27 76.7889 Q1211.11 84.8907 1208.11 87.3618 Q1205.11 89.8329 1200.09 89.8329 L1194.13 89.8329 L1194.13 83.5945 L1198.51 83.5945 Q1201.59 83.5945 1203.29 82.1361 Q1204.99 80.6778 1207.06 75.2496 L1208.39 71.8468 L1190.04 27.2059 L1197.94 27.2059 L1212.12 62.6918 L1226.3 27.2059 L1234.2 27.2059 L1214.27 76.7889 Z" fill="#000000" fill-rule="nonzero" fill-opacity="1" /><path clip-path="url(#clip190)" d="M1297.15 34.1734 Q1295.89 33.4443 1294.39 33.1202 Q1292.93 32.7556 1291.15 32.7556 Q1284.83 32.7556 1281.43 36.8875 Q1278.07 40.9789 1278.07 48.6757 L1278.07 72.576 L1270.57 72.576 L1270.57 27.2059 L1278.07 27.2059 L1278.07 34.2544 Q1280.42 30.1225 1284.18 28.1376 Q1287.95 26.1121 1293.34 26.1121 Q1294.11 26.1121 1295.04 26.2337 Q1295.97 26.3147 1297.11 26.5172 L1297.15 34.1734 Z" fill="#000000" fill-rule="nonzero" fill-opacity="1" /><path clip-path="url(#clip190)" d="M1341.95 48.0275 L1341.95 51.6733 L1307.68 51.6733 Q1308.17 59.3701 1312.3 63.421 Q1316.47 67.4314 1323.88 67.4314 Q1328.18 67.4314 1332.19 66.3781 Q1336.24 65.3249 1340.21 63.2184 L1340.21 70.267 Q1336.2 71.9684 1331.99 72.8596 Q1327.77 73.7508 1323.44 73.7508 Q1312.58 73.7508 1306.22 67.4314 Q1299.9 61.1119 1299.9 50.3365 Q1299.9 39.1965 1305.9 32.6746 Q1311.93 26.1121 1322.14 26.1121 Q1331.3 26.1121 1336.6 32.0264 Q1341.95 37.9003 1341.95 48.0275 M1334.5 45.84 Q1334.42 39.7232 1331.05 36.0774 Q1327.73 32.4315 1322.22 32.4315 Q1315.98 32.4315 1312.22 35.9558 Q1308.49 39.4801 1307.92 45.8805 L1334.5 45.84 Z" fill="#000000" fill-rule="nonzero" fill-opacity="1" /><path clip-path="url(#clip190)" d="M1354.18 9.54393 L1361.64 9.54393 L1361.64 72.576 L1354.18 72.576 L1354.18 9.54393 Z" fill="#000000" fill-rule="nonzero" fill-opacity="1" /><path clip-path="url(#clip190)" d="M1397.85 49.7694 Q1388.82 49.7694 1385.34 51.8354 Q1381.85 53.9013 1381.85 58.8839 Q1381.85 62.8538 1384.44 65.2034 Q1387.08 67.5124 1391.57 67.5124 Q1397.77 67.5124 1401.5 63.1374 Q1405.27 58.7219 1405.27 51.4303 L1405.27 49.7694 L1397.85 49.7694 M1412.72 46.6907 L1412.72 72.576 L1405.27 72.576 L1405.27 65.6895 Q1402.71 69.8214 1398.91 71.8063 Q1395.1 73.7508 1389.59 73.7508 Q1382.62 73.7508 1378.49 69.8619 Q1374.4 65.9325 1374.4 59.3701 Q1374.4 51.7138 1379.5 47.825 Q1384.65 43.9361 1394.81 43.9361 L1405.27 43.9361 L1405.27 43.2069 Q1405.27 38.0623 1401.86 35.2672 Q1398.5 32.4315 1392.38 32.4315 Q1388.5 32.4315 1384.81 33.3632 Q1381.12 34.295 1377.72 36.1584 L1377.72 29.2718 Q1381.81 27.692 1385.66 26.9223 Q1389.51 26.1121 1393.15 26.1121 Q1403 26.1121 1407.86 31.2163 Q1412.72 36.3204 1412.72 46.6907 Z" fill="#000000" fill-rule="nonzero" fill-opacity="1" /><path clip-path="url(#clip190)" d="M1435.45 14.324 L1435.45 27.2059 L1450.8 27.2059 L1450.8 32.9987 L1435.45 32.9987 L1435.45 57.6282 Q1435.45 63.1779 1436.94 64.7578 Q1438.48 66.3376 1443.14 66.3376 L1450.8 66.3376 L1450.8 72.576 L1443.14 72.576 Q1434.51 72.576 1431.23 69.3758 Q1427.95 66.1351 1427.95 57.6282 L1427.95 32.9987 L1422.48 32.9987 L1422.48 27.2059 L1427.95 27.2059 L1427.95 14.324 L1435.45 14.324 Z" fill="#000000" fill-rule="nonzero" fill-opacity="1" /><path clip-path="url(#clip190)" d="M1460.6 27.2059 L1468.05 27.2059 L1468.05 72.576 L1460.6 72.576 L1460.6 27.2059 M1460.6 9.54393 L1468.05 9.54393 L1468.05 18.9825 L1460.6 18.9825 L1460.6 9.54393 Z" fill="#000000" fill-rule="nonzero" fill-opacity="1" /><path clip-path="url(#clip190)" d="M1478.3 27.2059 L1486.2 27.2059 L1500.38 65.2844 L1514.56 27.2059 L1522.46 27.2059 L1505.44 72.576 L1495.32 72.576 L1478.3 27.2059 Z" fill="#000000" fill-rule="nonzero" fill-opacity="1" /><path clip-path="url(#clip190)" d="M1571.56 48.0275 L1571.56 51.6733 L1537.28 51.6733 Q1537.77 59.3701 1541.9 63.421 Q1546.08 67.4314 1553.49 67.4314 Q1557.78 67.4314 1561.79 66.3781 Q1565.84 65.3249 1569.81 63.2184 L1569.81 70.267 Q1565.8 71.9684 1561.59 72.8596 Q1557.38 73.7508 1553.04 73.7508 Q1542.19 73.7508 1535.83 67.4314 Q1529.51 61.1119 1529.51 50.3365 Q1529.51 39.1965 1535.5 32.6746 Q1541.54 26.1121 1551.75 26.1121 Q1560.9 26.1121 1566.21 32.0264 Q1571.56 37.9003 1571.56 48.0275 M1564.1 45.84 Q1564.02 39.7232 1560.66 36.0774 Q1557.34 32.4315 1551.83 32.4315 Q1545.59 32.4315 1541.82 35.9558 Q1538.1 39.4801 1537.53 45.8805 L1564.1 45.84 Z" fill="#000000" fill-rule="nonzero" fill-opacity="1" /><path clip-path="url(#clip190)" d="M1617.53 14.324 L1617.53 27.2059 L1632.89 27.2059 L1632.89 32.9987 L1617.53 32.9987 L1617.53 57.6282 Q1617.53 63.1779 1619.03 64.7578 Q1620.57 66.3376 1625.23 66.3376 L1632.89 66.3376 L1632.89 72.576 L1625.23 72.576 Q1616.6 72.576 1613.32 69.3758 Q1610.04 66.1351 1610.04 57.6282 L1610.04 32.9987 L1604.57 32.9987 L1604.57 27.2059 L1610.04 27.2059 L1610.04 14.324 L1617.53 14.324 Z" fill="#000000" fill-rule="nonzero" fill-opacity="1" /><path clip-path="url(#clip190)" d="M1660.27 32.4315 Q1654.27 32.4315 1650.79 37.1306 Q1647.31 41.7891 1647.31 49.9314 Q1647.31 58.0738 1650.75 62.7728 Q1654.23 67.4314 1660.27 67.4314 Q1666.23 67.4314 1669.71 62.7323 Q1673.19 58.0333 1673.19 49.9314 Q1673.19 41.8701 1669.71 37.1711 Q1666.23 32.4315 1660.27 32.4315 M1660.27 26.1121 Q1669.99 26.1121 1675.54 32.4315 Q1681.09 38.7509 1681.09 49.9314 Q1681.09 61.0714 1675.54 67.4314 Q1669.99 73.7508 1660.27 73.7508 Q1650.51 73.7508 1644.96 67.4314 Q1639.45 61.0714 1639.45 49.9314 Q1639.45 38.7509 1644.96 32.4315 Q1650.51 26.1121 1660.27 26.1121 Z" fill="#000000" fill-rule="nonzero" fill-opacity="1" /><path clip-path="url(#clip190)" d="M1727.92 65.6895 L1756.48 65.6895 L1756.48 72.576 L1718.08 72.576 L1718.08 65.6895 Q1722.74 60.8689 1730.76 52.7671 Q1738.82 44.6248 1740.88 42.2752 Q1744.81 37.8598 1746.35 34.8216 Q1747.93 31.7429 1747.93 28.7857 Q1747.93 23.9651 1744.53 20.927 Q1741.17 17.8888 1735.74 17.8888 Q1731.89 17.8888 1727.6 19.2256 Q1723.34 20.5624 1718.48 23.2765 L1718.48 15.0127 Q1723.42 13.0277 1727.72 12.015 Q1732.01 11.0023 1735.58 11.0023 Q1744.97 11.0023 1750.56 15.7013 Q1756.16 20.4004 1756.16 28.2591 Q1756.16 31.9859 1754.74 35.3482 Q1753.36 38.6699 1749.67 43.2069 Q1748.66 44.3817 1743.23 50.0125 Q1737.8 55.6027 1727.92 65.6895 Z" fill="#000000" fill-rule="nonzero" fill-opacity="1" /><path clip-path="url(#clip190)" d="M1773.9 71.3202 L1773.9 63.8666 Q1776.98 65.3249 1780.14 66.0946 Q1783.3 66.8642 1786.33 66.8642 Q1794.44 66.8642 1798.69 61.436 Q1802.98 55.9673 1803.59 44.8678 Q1801.24 48.3516 1797.64 50.215 Q1794.03 52.0784 1789.66 52.0784 Q1780.58 52.0784 1775.28 46.6097 Q1770.01 41.1005 1770.01 31.5808 Q1770.01 22.2638 1775.52 16.633 Q1781.03 11.0023 1790.18 11.0023 Q1800.67 11.0023 1806.18 19.0636 Q1811.73 27.0843 1811.73 42.3968 Q1811.73 56.6965 1804.93 65.2439 Q1798.16 73.7508 1786.7 73.7508 Q1783.62 73.7508 1780.46 73.1431 Q1777.3 72.5355 1773.9 71.3202 M1790.18 45.678 Q1795.69 45.678 1798.89 41.9107 Q1802.13 38.1433 1802.13 31.5808 Q1802.13 25.0589 1798.89 21.2916 Q1795.69 17.4837 1790.18 17.4837 Q1784.67 17.4837 1781.43 21.2916 Q1778.23 25.0589 1778.23 31.5808 Q1778.23 38.1433 1781.43 41.9107 Q1784.67 45.678 1790.18 45.678 Z" fill="#000000" fill-rule="nonzero" fill-opacity="1" /><path clip-path="url(#clip190)" d="M1843.94 43.8551 Q1838.11 43.8551 1834.74 46.9743 Q1831.42 50.0935 1831.42 55.5622 Q1831.42 61.0309 1834.74 64.1501 Q1838.11 67.2693 1843.94 67.2693 Q1849.77 67.2693 1853.13 64.1501 Q1856.5 60.9904 1856.5 55.5622 Q1856.5 50.0935 1853.13 46.9743 Q1849.81 43.8551 1843.94 43.8551 M1835.76 40.3713 Q1830.49 39.075 1827.53 35.4697 Q1824.62 31.8644 1824.62 26.6793 Q1824.62 19.4281 1829.76 15.2152 Q1834.95 11.0023 1843.94 11.0023 Q1852.97 11.0023 1858.12 15.2152 Q1863.26 19.4281 1863.26 26.6793 Q1863.26 31.8644 1860.3 35.4697 Q1857.39 39.075 1852.16 40.3713 Q1858.08 41.7486 1861.36 45.759 Q1864.68 49.7694 1864.68 55.5622 Q1864.68 64.3527 1859.29 69.0517 Q1853.94 73.7508 1843.94 73.7508 Q1833.93 73.7508 1828.54 69.0517 Q1823.2 64.3527 1823.2 55.5622 Q1823.2 49.7694 1826.52 45.759 Q1829.84 41.7486 1835.76 40.3713 M1832.76 27.4489 Q1832.76 32.148 1835.67 34.7811 Q1838.63 37.4142 1843.94 37.4142 Q1849.2 37.4142 1852.16 34.7811 Q1855.16 32.148 1855.16 27.4489 Q1855.16 22.7499 1852.16 20.1168 Q1849.2 17.4837 1843.94 17.4837 Q1838.63 17.4837 1835.67 20.1168 Q1832.76 22.7499 1832.76 27.4489 Z" fill="#000000" fill-rule="nonzero" fill-opacity="1" /><path clip-path="url(#clip190)" d="M1879.22 62.2867 L1887.77 62.2867 L1887.77 72.576 L1879.22 72.576 L1879.22 62.2867 Z" fill="#000000" fill-rule="nonzero" fill-opacity="1" /><path clip-path="url(#clip190)" d="M1907.01 65.6895 L1920.38 65.6895 L1920.38 19.5497 L1905.84 22.4663 L1905.84 15.0127 L1920.3 12.096 L1928.48 12.096 L1928.48 65.6895 L1941.85 65.6895 L1941.85 72.576 L1907.01 72.576 L1907.01 65.6895 Z" fill="#000000" fill-rule="nonzero" fill-opacity="1" /><path clip-path="url(#clip190)" d="M1958.46 12.096 L1990.58 12.096 L1990.58 18.9825 L1965.95 18.9825 L1965.95 33.8088 Q1967.73 33.2012 1969.52 32.9176 Q1971.3 32.5936 1973.08 32.5936 Q1983.21 32.5936 1989.12 38.1433 Q1995.04 43.6931 1995.04 53.1722 Q1995.04 62.9348 1988.96 68.3631 Q1982.88 73.7508 1971.83 73.7508 Q1968.02 73.7508 1964.05 73.1026 Q1960.12 72.4545 1955.91 71.1582 L1955.91 62.9348 Q1959.55 64.9198 1963.44 65.892 Q1967.33 66.8642 1971.66 66.8642 Q1978.67 66.8642 1982.76 63.1779 Q1986.85 59.4916 1986.85 53.1722 Q1986.85 46.8528 1982.76 43.1664 Q1978.67 39.4801 1971.66 39.4801 Q1968.38 39.4801 1965.1 40.2093 Q1961.86 40.9384 1958.46 42.4778 L1958.46 12.096 Z" fill="#000000" fill-rule="nonzero" fill-opacity="1" /><path clip-path="url(#clip190)" d="M2036.8 12.096 L2044.98 12.096 L2044.98 37.6572 L2072.13 12.096 L2082.66 12.096 L2052.64 40.2903 L2084.81 72.576 L2074.03 72.576 L2044.98 43.45 L2044.98 72.576 L2036.8 72.576 L2036.8 12.096 Z" fill="#000000" fill-rule="nonzero" fill-opacity="1" /><polyline clip-path="url(#clip192)" style="stroke:#808080; stroke-linecap:round; stroke-linejoin:round; stroke-width:3.2; stroke-opacity:1; fill:none" points="-1884.51,1386.4 4471.39,1386.4 "/>
<polyline clip-path="url(#clip192)" style="stroke:#009af9; stroke-linecap:round; stroke-linejoin:round; stroke-width:8; stroke-opacity:1; fill:none" points="593.043,1385.83 643.036,1369.47 693.028,1351.02 743.021,1330.54 793.014,1308.14 843.006,1283.93 892.999,1258.05 942.992,1230.62 992.985,1201.75 1042.98,1171.53 1092.97,1140.06 1142.96,1107.42 1192.96,1073.68 1242.95,1038.9 1292.94,1003.17 1342.93,966.555 1392.93,929.1 1442.92,890.863 1492.91,851.897 1542.9,812.249 1592.9,771.965 1642.89,731.088 1692.88,689.657 1742.88,647.708 1792.87,605.277 1842.86,562.393 1892.85,519.086 1942.85,475.383 1992.84,431.309 2042.83,386.888 2092.82,342.139 2142.82,297.084 2192.81,251.741 2242.8,206.126 2292.79,160.256 "/>
<polyline clip-path="url(#clip192)" style="stroke:#639559; stroke-linecap:round; stroke-linejoin:round; stroke-width:8; stroke-opacity:1; fill:none" points="593.043,1386.12 643.036,1378.49 693.028,1370.36 743.021,1361.64 793.014,1352.31 843.006,1342.34 892.999,1331.73 942.992,1320.5 992.985,1308.67 1042.98,1296.25 1092.97,1283.26 1142.96,1269.73 1192.96,1255.67 1242.95,1241.11 1292.94,1226.08 1342.93,1210.59 1392.93,1194.66 1442.92,1178.33 1492.91,1161.6 1542.9,1144.51 1592.9,1127.06 1642.89,1109.27 1692.88,1091.17 1742.88,1072.77 1792.87,1054.08 1842.86,1035.12 1892.85,1015.89 1942.85,996.423 1992.84,976.716 2042.83,956.784 2092.82,936.635 2142.82,916.279 2192.81,895.723 2242.8,874.977 2292.79,854.046 "/>
<polyline clip-path="url(#clip192)" style="stroke:#6b9e32; stroke-linecap:round; stroke-linejoin:round; stroke-width:8; stroke-opacity:1; fill:none" points="593.043,1385.89 643.036,1371.49 693.028,1355.46 743.021,1337.83 793.014,1318.7 843.006,1298.16 892.999,1276.33 942.992,1253.31 992.985,1229.2 1042.98,1204.08 1092.97,1178.02 1142.96,1151.08 1192.96,1123.33 1242.95,1094.81 1292.94,1065.57 1342.93,1035.68 1392.93,1005.17 1442.92,974.079 1492.91,942.444 1542.9,910.3 1592.9,877.682 1642.89,844.62 1692.88,811.143 1742.88,777.278 1792.87,743.049 1842.86,708.48 1892.85,673.593 1942.85,638.406 1992.84,602.938 2042.83,567.207 2092.82,531.229 2142.82,495.017 2192.81,458.586 2242.8,421.948 2292.79,385.116 "/>
<path clip-path="url(#clip190)" d="M304.746 374.156 L1035.26 374.156 L1035.26 166.796 L304.746 166.796  Z" fill="#ffffff" fill-rule="evenodd" fill-opacity="1"/>
<polyline clip-path="url(#clip190)" style="stroke:#000000; stroke-linecap:round; stroke-linejoin:round; stroke-width:4; stroke-opacity:1; fill:none" points="304.746,374.156 1035.26,374.156 1035.26,166.796 304.746,166.796 304.746,374.156 "/>
<polyline clip-path="url(#clip190)" style="stroke:#009af9; stroke-linecap:round; stroke-linejoin:round; stroke-width:8; stroke-opacity:1; fill:none" points="328.287,218.636 469.529,218.636 "/>
<path clip-path="url(#clip190)" d="M497.745 205.198 L497.745 218.184 L503.625 218.184 Q506.889 218.184 508.671 216.495 Q510.453 214.805 510.453 211.68 Q510.453 208.578 508.671 206.888 Q506.889 205.198 503.625 205.198 L497.745 205.198 M493.069 201.356 L503.625 201.356 Q509.435 201.356 512.398 203.995 Q515.384 206.61 515.384 211.68 Q515.384 216.795 512.398 219.411 Q509.435 222.027 503.625 222.027 L497.745 222.027 L497.745 235.916 L493.069 235.916 L493.069 201.356 Z" fill="#000000" fill-rule="nonzero" fill-opacity="1" /><path clip-path="url(#clip190)" d="M535.662 213.971 Q534.944 213.555 534.087 213.37 Q533.254 213.161 532.236 213.161 Q528.625 213.161 526.68 215.522 Q524.759 217.86 524.759 222.258 L524.759 235.916 L520.476 235.916 L520.476 209.99 L524.759 209.99 L524.759 214.018 Q526.101 211.657 528.254 210.522 Q530.407 209.365 533.486 209.365 Q533.925 209.365 534.458 209.434 Q534.99 209.481 535.638 209.596 L535.662 213.971 Z" fill="#000000" fill-rule="nonzero" fill-opacity="1" /><path clip-path="url(#clip190)" d="M549.134 212.976 Q545.708 212.976 543.717 215.661 Q541.726 218.323 541.726 222.976 Q541.726 227.629 543.694 230.314 Q545.685 232.976 549.134 232.976 Q552.536 232.976 554.527 230.291 Q556.518 227.606 556.518 222.976 Q556.518 218.37 554.527 215.684 Q552.536 212.976 549.134 212.976 M549.134 209.365 Q554.689 209.365 557.86 212.976 Q561.032 216.587 561.032 222.976 Q561.032 229.342 557.86 232.976 Q554.689 236.587 549.134 236.587 Q543.555 236.587 540.384 232.976 Q537.236 229.342 537.236 222.976 Q537.236 216.587 540.384 212.976 Q543.555 209.365 549.134 209.365 Z" fill="#000000" fill-rule="nonzero" fill-opacity="1" /><path clip-path="url(#clip190)" d="M572.212 232.027 L572.212 245.777 L567.93 245.777 L567.93 209.99 L572.212 209.99 L572.212 213.925 Q573.555 211.61 575.592 210.499 Q577.652 209.365 580.499 209.365 Q585.221 209.365 588.161 213.115 Q591.124 216.865 591.124 222.976 Q591.124 229.087 588.161 232.837 Q585.221 236.587 580.499 236.587 Q577.652 236.587 575.592 235.476 Q573.555 234.342 572.212 232.027 M586.703 222.976 Q586.703 218.277 584.758 215.615 Q582.837 212.93 579.458 212.93 Q576.078 212.93 574.134 215.615 Q572.212 218.277 572.212 222.976 Q572.212 227.675 574.134 230.36 Q576.078 233.022 579.458 233.022 Q582.837 233.022 584.758 230.36 Q586.703 227.675 586.703 222.976 Z" fill="#000000" fill-rule="nonzero" fill-opacity="1" /><path clip-path="url(#clip190)" d="M609.967 222.883 Q604.805 222.883 602.814 224.064 Q600.823 225.244 600.823 228.092 Q600.823 230.36 602.305 231.703 Q603.809 233.022 606.379 233.022 Q609.92 233.022 612.05 230.522 Q614.203 227.999 614.203 223.832 L614.203 222.883 L609.967 222.883 M618.462 221.124 L618.462 235.916 L614.203 235.916 L614.203 231.981 Q612.744 234.342 610.569 235.476 Q608.393 236.587 605.244 236.587 Q601.263 236.587 598.902 234.365 Q596.564 232.119 596.564 228.369 Q596.564 223.994 599.481 221.772 Q602.42 219.55 608.231 219.55 L614.203 219.55 L614.203 219.133 Q614.203 216.194 612.258 214.596 Q610.337 212.976 606.842 212.976 Q604.619 212.976 602.513 213.508 Q600.407 214.041 598.462 215.106 L598.462 211.17 Q600.8 210.268 602.999 209.828 Q605.198 209.365 607.282 209.365 Q612.906 209.365 615.684 212.282 Q618.462 215.198 618.462 221.124 Z" fill="#000000" fill-rule="nonzero" fill-opacity="1" /><path clip-path="url(#clip190)" d="M648.786 220.268 L648.786 235.916 L644.527 235.916 L644.527 220.407 Q644.527 216.726 643.092 214.897 Q641.656 213.069 638.786 213.069 Q635.337 213.069 633.346 215.268 Q631.355 217.467 631.355 221.263 L631.355 235.916 L627.073 235.916 L627.073 209.99 L631.355 209.99 L631.355 214.018 Q632.883 211.68 634.943 210.522 Q637.027 209.365 639.735 209.365 Q644.203 209.365 646.494 212.143 Q648.786 214.897 648.786 220.268 Z" fill="#000000" fill-rule="nonzero" fill-opacity="1" /><path clip-path="url(#clip190)" d="M679.457 221.888 L679.457 223.971 L659.874 223.971 Q660.152 228.369 662.513 230.684 Q664.897 232.976 669.133 232.976 Q671.587 232.976 673.878 232.374 Q676.193 231.772 678.462 230.569 L678.462 234.596 Q676.17 235.568 673.763 236.078 Q671.355 236.587 668.878 236.587 Q662.675 236.587 659.041 232.976 Q655.429 229.365 655.429 223.207 Q655.429 216.842 658.855 213.115 Q662.304 209.365 668.138 209.365 Q673.369 209.365 676.402 212.745 Q679.457 216.101 679.457 221.888 M675.198 220.638 Q675.152 217.143 673.23 215.059 Q671.332 212.976 668.184 212.976 Q664.619 212.976 662.466 214.99 Q660.337 217.004 660.013 220.661 L675.198 220.638 Z" fill="#000000" fill-rule="nonzero" fill-opacity="1" /><path clip-path="url(#clip190)" d="M711.749 199.944 Q708.647 205.268 707.142 210.476 Q705.637 215.684 705.637 221.032 Q705.637 226.379 707.142 231.633 Q708.67 236.865 711.749 242.166 L708.045 242.166 Q704.573 236.726 702.837 231.471 Q701.124 226.217 701.124 221.032 Q701.124 215.87 702.837 210.638 Q704.55 205.407 708.045 199.944 L711.749 199.944 Z" fill="#000000" fill-rule="nonzero" fill-opacity="1" /><path clip-path="url(#clip190)" d="M720.198 201.356 L724.873 201.356 L724.873 231.981 L741.702 231.981 L741.702 235.916 L720.198 235.916 L720.198 201.356 Z" fill="#000000" fill-rule="nonzero" fill-opacity="1" /><path clip-path="url(#clip190)" d="M751.285 205.198 L751.285 218.184 L757.165 218.184 Q760.429 218.184 762.211 216.495 Q763.994 214.805 763.994 211.68 Q763.994 208.578 762.211 206.888 Q760.429 205.198 757.165 205.198 L751.285 205.198 M746.609 201.356 L757.165 201.356 Q762.975 201.356 765.938 203.995 Q768.924 206.61 768.924 211.68 Q768.924 216.795 765.938 219.411 Q762.975 222.027 757.165 222.027 L751.285 222.027 L751.285 235.916 L746.609 235.916 L746.609 201.356 Z" fill="#000000" fill-rule="nonzero" fill-opacity="1" /><path clip-path="url(#clip190)" d="M798.762 230.985 L798.762 221.703 L791.123 221.703 L791.123 217.86 L803.392 217.86 L803.392 232.698 Q800.683 234.619 797.419 235.615 Q794.156 236.587 790.452 236.587 Q782.35 236.587 777.767 231.865 Q773.207 227.119 773.207 218.67 Q773.207 210.198 777.767 205.476 Q782.35 200.731 790.452 200.731 Q793.831 200.731 796.864 201.564 Q799.919 202.397 802.489 204.018 L802.489 208.995 Q799.896 206.796 796.98 205.684 Q794.063 204.573 790.845 204.573 Q784.503 204.573 781.308 208.115 Q778.137 211.657 778.137 218.67 Q778.137 225.661 781.308 229.203 Q784.503 232.744 790.845 232.744 Q793.322 232.744 795.267 232.328 Q797.211 231.888 798.762 230.985 Z" fill="#000000" fill-rule="nonzero" fill-opacity="1" /><path clip-path="url(#clip190)" d="M811.077 199.944 L814.78 199.944 Q818.253 205.407 819.966 210.638 Q821.702 215.87 821.702 221.032 Q821.702 226.217 819.966 231.471 Q818.253 236.726 814.78 242.166 L811.077 242.166 Q814.155 236.865 815.66 231.633 Q817.188 226.379 817.188 221.032 Q817.188 215.684 815.66 210.476 Q814.155 205.268 811.077 199.944 Z" fill="#000000" fill-rule="nonzero" fill-opacity="1" /><polyline clip-path="url(#clip190)" style="stroke:#639559; stroke-linecap:round; stroke-linejoin:round; stroke-width:8; stroke-opacity:1; fill:none" points="328.287,270.476 469.529,270.476 "/>
<path clip-path="url(#clip190)" d="M493.069 253.196 L500.037 253.196 L508.856 276.714 L517.722 253.196 L524.689 253.196 L524.689 287.756 L520.129 287.756 L520.129 257.409 L511.217 281.112 L506.518 281.112 L497.606 257.409 L497.606 287.756 L493.069 287.756 L493.069 253.196 Z" fill="#000000" fill-rule="nonzero" fill-opacity="1" /><path clip-path="url(#clip190)" d="M555.962 273.728 L555.962 275.811 L536.379 275.811 Q536.657 280.209 539.018 282.524 Q541.402 284.816 545.638 284.816 Q548.092 284.816 550.384 284.214 Q552.698 283.612 554.967 282.409 L554.967 286.436 Q552.675 287.408 550.268 287.918 Q547.861 288.427 545.384 288.427 Q539.18 288.427 535.546 284.816 Q531.935 281.205 531.935 275.047 Q531.935 268.682 535.361 264.955 Q538.81 261.205 544.643 261.205 Q549.874 261.205 552.907 264.585 Q555.962 267.941 555.962 273.728 M551.703 272.478 Q551.657 268.983 549.736 266.899 Q547.837 264.816 544.689 264.816 Q541.124 264.816 538.972 266.83 Q536.842 268.844 536.518 272.501 L551.703 272.478 Z" fill="#000000" fill-rule="nonzero" fill-opacity="1" /><path clip-path="url(#clip190)" d="M567.166 254.469 L567.166 261.83 L575.939 261.83 L575.939 265.14 L567.166 265.14 L567.166 279.214 Q567.166 282.385 568.022 283.288 Q568.902 284.191 571.564 284.191 L575.939 284.191 L575.939 287.756 L571.564 287.756 Q566.634 287.756 564.759 285.927 Q562.884 284.075 562.884 279.214 L562.884 265.14 L559.759 265.14 L559.759 261.83 L562.884 261.83 L562.884 254.469 L567.166 254.469 Z" fill="#000000" fill-rule="nonzero" fill-opacity="1" /><path clip-path="url(#clip190)" d="M603.092 272.108 L603.092 287.756 L598.832 287.756 L598.832 272.247 Q598.832 268.566 597.397 266.737 Q595.962 264.909 593.092 264.909 Q589.643 264.909 587.652 267.108 Q585.661 269.307 585.661 273.103 L585.661 287.756 L581.379 287.756 L581.379 251.737 L585.661 251.737 L585.661 265.858 Q587.189 263.52 589.249 262.362 Q591.333 261.205 594.041 261.205 Q598.508 261.205 600.8 263.983 Q603.092 266.737 603.092 272.108 Z" fill="#000000" fill-rule="nonzero" fill-opacity="1" /><path clip-path="url(#clip190)" d="M623.369 274.723 Q618.207 274.723 616.217 275.904 Q614.226 277.084 614.226 279.932 Q614.226 282.2 615.707 283.543 Q617.212 284.862 619.781 284.862 Q623.323 284.862 625.453 282.362 Q627.605 279.839 627.605 275.672 L627.605 274.723 L623.369 274.723 M631.865 272.964 L631.865 287.756 L627.605 287.756 L627.605 283.821 Q626.147 286.182 623.971 287.316 Q621.795 288.427 618.647 288.427 Q614.666 288.427 612.305 286.205 Q609.967 283.959 609.967 280.209 Q609.967 275.834 612.883 273.612 Q615.823 271.39 621.633 271.39 L627.605 271.39 L627.605 270.973 Q627.605 268.034 625.661 266.436 Q623.74 264.816 620.244 264.816 Q618.022 264.816 615.916 265.348 Q613.809 265.881 611.865 266.946 L611.865 263.01 Q614.203 262.108 616.402 261.668 Q618.601 261.205 620.684 261.205 Q626.309 261.205 629.087 264.122 Q631.865 267.038 631.865 272.964 Z" fill="#000000" fill-rule="nonzero" fill-opacity="1" /><path clip-path="url(#clip190)" d="M662.189 272.108 L662.189 287.756 L657.929 287.756 L657.929 272.247 Q657.929 268.566 656.494 266.737 Q655.059 264.909 652.189 264.909 Q648.74 264.909 646.749 267.108 Q644.758 269.307 644.758 273.103 L644.758 287.756 L640.476 287.756 L640.476 261.83 L644.758 261.83 L644.758 265.858 Q646.286 263.52 648.346 262.362 Q650.429 261.205 653.138 261.205 Q657.605 261.205 659.897 263.983 Q662.189 266.737 662.189 272.108 Z" fill="#000000" fill-rule="nonzero" fill-opacity="1" /><path clip-path="url(#clip190)" d="M692.86 273.728 L692.86 275.811 L673.277 275.811 Q673.554 280.209 675.915 282.524 Q678.3 284.816 682.536 284.816 Q684.989 284.816 687.281 284.214 Q689.596 283.612 691.864 282.409 L691.864 286.436 Q689.573 287.408 687.165 287.918 Q684.758 288.427 682.281 288.427 Q676.077 288.427 672.443 284.816 Q668.832 281.205 668.832 275.047 Q668.832 268.682 672.258 264.955 Q675.707 261.205 681.54 261.205 Q686.772 261.205 689.804 264.585 Q692.86 267.941 692.86 273.728 M688.601 272.478 Q688.554 268.983 686.633 266.899 Q684.735 264.816 681.587 264.816 Q678.022 264.816 675.869 266.83 Q673.739 268.844 673.415 272.501 L688.601 272.478 Z" fill="#000000" fill-rule="nonzero" fill-opacity="1" /><path clip-path="url(#clip190)" d="M725.151 251.784 Q722.049 257.108 720.545 262.316 Q719.04 267.524 719.04 272.872 Q719.04 278.219 720.545 283.473 Q722.073 288.705 725.151 294.006 L721.448 294.006 Q717.975 288.566 716.239 283.311 Q714.526 278.057 714.526 272.872 Q714.526 267.71 716.239 262.478 Q717.952 257.247 721.448 251.784 L725.151 251.784 Z" fill="#000000" fill-rule="nonzero" fill-opacity="1" /><path clip-path="url(#clip190)" d="M754.966 272.108 L754.966 287.756 L750.707 287.756 L750.707 272.247 Q750.707 268.566 749.272 266.737 Q747.836 264.909 744.966 264.909 Q741.517 264.909 739.526 267.108 Q737.535 269.307 737.535 273.103 L737.535 287.756 L733.253 287.756 L733.253 261.83 L737.535 261.83 L737.535 265.858 Q739.063 263.52 741.123 262.362 Q743.207 261.205 745.915 261.205 Q750.383 261.205 752.674 263.983 Q754.966 266.737 754.966 272.108 Z" fill="#000000" fill-rule="nonzero" fill-opacity="1" /><path clip-path="url(#clip190)" d="M775.244 274.723 Q770.082 274.723 768.091 275.904 Q766.1 277.084 766.1 279.932 Q766.1 282.2 767.582 283.543 Q769.086 284.862 771.656 284.862 Q775.197 284.862 777.327 282.362 Q779.48 279.839 779.48 275.672 L779.48 274.723 L775.244 274.723 M783.739 272.964 L783.739 287.756 L779.48 287.756 L779.48 283.821 Q778.021 286.182 775.845 287.316 Q773.67 288.427 770.521 288.427 Q766.54 288.427 764.179 286.205 Q761.841 283.959 761.841 280.209 Q761.841 275.834 764.758 273.612 Q767.697 271.39 773.507 271.39 L779.48 271.39 L779.48 270.973 Q779.48 268.034 777.535 266.436 Q775.614 264.816 772.119 264.816 Q769.896 264.816 767.79 265.348 Q765.683 265.881 763.739 266.946 L763.739 263.01 Q766.077 262.108 768.276 261.668 Q770.475 261.205 772.558 261.205 Q778.183 261.205 780.961 264.122 Q783.739 267.038 783.739 272.964 Z" fill="#000000" fill-rule="nonzero" fill-opacity="1" /><path clip-path="url(#clip190)" d="M796.725 254.469 L796.725 261.83 L805.498 261.83 L805.498 265.14 L796.725 265.14 L796.725 279.214 Q796.725 282.385 797.581 283.288 Q798.461 284.191 801.123 284.191 L805.498 284.191 L805.498 287.756 L801.123 287.756 Q796.193 287.756 794.318 285.927 Q792.443 284.075 792.443 279.214 L792.443 265.14 L789.318 265.14 L789.318 261.83 L792.443 261.83 L792.443 254.469 L796.725 254.469 Z" fill="#000000" fill-rule="nonzero" fill-opacity="1" /><path clip-path="url(#clip190)" d="M810.66 277.524 L810.66 261.83 L814.919 261.83 L814.919 277.362 Q814.919 281.043 816.354 282.895 Q817.79 284.723 820.66 284.723 Q824.109 284.723 826.1 282.524 Q828.114 280.325 828.114 276.529 L828.114 261.83 L832.373 261.83 L832.373 287.756 L828.114 287.756 L828.114 283.774 Q826.563 286.135 824.503 287.293 Q822.466 288.427 819.757 288.427 Q815.29 288.427 812.975 285.649 Q810.66 282.871 810.66 277.524 M821.378 261.205 L821.378 261.205 Z" fill="#000000" fill-rule="nonzero" fill-opacity="1" /><path clip-path="url(#clip190)" d="M856.169 265.811 Q855.451 265.395 854.595 265.21 Q853.762 265.001 852.743 265.001 Q849.132 265.001 847.188 267.362 Q845.266 269.7 845.266 274.098 L845.266 287.756 L840.984 287.756 L840.984 261.83 L845.266 261.83 L845.266 265.858 Q846.609 263.497 848.762 262.362 Q850.914 261.205 853.993 261.205 Q854.433 261.205 854.965 261.274 Q855.498 261.321 856.146 261.436 L856.169 265.811 Z" fill="#000000" fill-rule="nonzero" fill-opacity="1" /><path clip-path="url(#clip190)" d="M872.419 274.723 Q867.257 274.723 865.266 275.904 Q863.276 277.084 863.276 279.932 Q863.276 282.2 864.757 283.543 Q866.262 284.862 868.831 284.862 Q872.373 284.862 874.502 282.362 Q876.655 279.839 876.655 275.672 L876.655 274.723 L872.419 274.723 M880.914 272.964 L880.914 287.756 L876.655 287.756 L876.655 283.821 Q875.197 286.182 873.021 287.316 Q870.845 288.427 867.697 288.427 Q863.715 288.427 861.354 286.205 Q859.016 283.959 859.016 280.209 Q859.016 275.834 861.933 273.612 Q864.873 271.39 870.683 271.39 L876.655 271.39 L876.655 270.973 Q876.655 268.034 874.711 266.436 Q872.789 264.816 869.294 264.816 Q867.072 264.816 864.965 265.348 Q862.859 265.881 860.914 266.946 L860.914 263.01 Q863.252 262.108 865.451 261.668 Q867.65 261.205 869.734 261.205 Q875.359 261.205 878.137 264.122 Q880.914 267.038 880.914 272.964 Z" fill="#000000" fill-rule="nonzero" fill-opacity="1" /><path clip-path="url(#clip190)" d="M889.687 251.737 L893.947 251.737 L893.947 287.756 L889.687 287.756 L889.687 251.737 Z" fill="#000000" fill-rule="nonzero" fill-opacity="1" /><path clip-path="url(#clip190)" d="M934.988 274.492 Q934.988 269.862 933.067 267.316 Q931.169 264.77 927.72 264.77 Q924.294 264.77 922.372 267.316 Q920.474 269.862 920.474 274.492 Q920.474 279.098 922.372 281.645 Q924.294 284.191 927.72 284.191 Q931.169 284.191 933.067 281.645 Q934.988 279.098 934.988 274.492 M939.247 284.538 Q939.247 291.158 936.308 294.376 Q933.368 297.617 927.303 297.617 Q925.058 297.617 923.067 297.27 Q921.076 296.945 919.201 296.251 L919.201 292.108 Q921.076 293.126 922.905 293.612 Q924.734 294.098 926.632 294.098 Q930.821 294.098 932.905 291.899 Q934.988 289.723 934.988 285.302 L934.988 283.196 Q933.669 285.487 931.608 286.621 Q929.548 287.756 926.678 287.756 Q921.909 287.756 918.993 284.121 Q916.076 280.487 916.076 274.492 Q916.076 268.473 918.993 264.839 Q921.909 261.205 926.678 261.205 Q929.548 261.205 931.608 262.339 Q933.669 263.473 934.988 265.765 L934.988 261.83 L939.247 261.83 L939.247 284.538 Z" fill="#000000" fill-rule="nonzero" fill-opacity="1" /><path clip-path="url(#clip190)" d="M959.803 274.723 Q954.641 274.723 952.65 275.904 Q950.659 277.084 950.659 279.932 Q950.659 282.2 952.141 283.543 Q953.645 284.862 956.215 284.862 Q959.756 284.862 961.886 282.362 Q964.039 279.839 964.039 275.672 L964.039 274.723 L959.803 274.723 M968.298 272.964 L968.298 287.756 L964.039 287.756 L964.039 283.821 Q962.581 286.182 960.405 287.316 Q958.229 288.427 955.081 288.427 Q951.099 288.427 948.738 286.205 Q946.4 283.959 946.4 280.209 Q946.4 275.834 949.317 273.612 Q952.257 271.39 958.067 271.39 L964.039 271.39 L964.039 270.973 Q964.039 268.034 962.094 266.436 Q960.173 264.816 956.678 264.816 Q954.456 264.816 952.349 265.348 Q950.243 265.881 948.298 266.946 L948.298 263.01 Q950.636 262.108 952.835 261.668 Q955.034 261.205 957.118 261.205 Q962.743 261.205 965.52 264.122 Q968.298 267.038 968.298 272.964 Z" fill="#000000" fill-rule="nonzero" fill-opacity="1" /><path clip-path="url(#clip190)" d="M993.599 262.594 L993.599 266.622 Q991.793 265.696 989.849 265.233 Q987.904 264.77 985.821 264.77 Q982.65 264.77 981.053 265.742 Q979.479 266.714 979.479 268.659 Q979.479 270.14 980.613 270.997 Q981.747 271.83 985.173 272.594 L986.631 272.918 Q991.168 273.89 993.066 275.672 Q994.988 277.432 994.988 280.603 Q994.988 284.214 992.117 286.321 Q989.27 288.427 984.27 288.427 Q982.187 288.427 979.918 288.01 Q977.673 287.617 975.173 286.807 L975.173 282.409 Q977.534 283.635 979.826 284.26 Q982.117 284.862 984.363 284.862 Q987.372 284.862 988.992 283.844 Q990.613 282.802 990.613 280.927 Q990.613 279.191 989.432 278.265 Q988.275 277.339 984.317 276.483 L982.835 276.135 Q978.877 275.302 977.118 273.589 Q975.358 271.853 975.358 268.844 Q975.358 265.186 977.951 263.196 Q980.543 261.205 985.312 261.205 Q987.673 261.205 989.756 261.552 Q991.84 261.899 993.599 262.594 Z" fill="#000000" fill-rule="nonzero" fill-opacity="1" /><path clip-path="url(#clip190)" d="M1001.1 251.784 L1004.8 251.784 Q1008.27 257.247 1009.99 262.478 Q1011.72 267.71 1011.72 272.872 Q1011.72 278.057 1009.99 283.311 Q1008.27 288.566 1004.8 294.006 L1001.1 294.006 Q1004.18 288.705 1005.68 283.473 Q1007.21 278.219 1007.21 272.872 Q1007.21 267.524 1005.68 262.316 Q1004.18 257.108 1001.1 251.784 Z" fill="#000000" fill-rule="nonzero" fill-opacity="1" /><polyline clip-path="url(#clip190)" style="stroke:#6b9e32; stroke-linecap:round; stroke-linejoin:round; stroke-width:8; stroke-opacity:1; fill:none" points="328.287,322.316 469.529,322.316 "/>
<path clip-path="url(#clip190)" d="M493.069 305.036 L514.921 305.036 L514.921 308.971 L497.745 308.971 L497.745 319.202 L514.203 319.202 L514.203 323.137 L497.745 323.137 L497.745 335.661 L515.338 335.661 L515.338 339.596 L493.069 339.596 L493.069 305.036 Z" fill="#000000" fill-rule="nonzero" fill-opacity="1" /><path clip-path="url(#clip190)" d="M527.05 306.309 L527.05 313.67 L535.824 313.67 L535.824 316.98 L527.05 316.98 L527.05 331.054 Q527.05 334.225 527.907 335.128 Q528.787 336.031 531.449 336.031 L535.824 336.031 L535.824 339.596 L531.449 339.596 Q526.518 339.596 524.643 337.767 Q522.768 335.915 522.768 331.054 L522.768 316.98 L519.643 316.98 L519.643 313.67 L522.768 313.67 L522.768 306.309 L527.05 306.309 Z" fill="#000000" fill-rule="nonzero" fill-opacity="1" /><path clip-path="url(#clip190)" d="M562.976 323.948 L562.976 339.596 L558.717 339.596 L558.717 324.087 Q558.717 320.406 557.282 318.577 Q555.847 316.749 552.976 316.749 Q549.527 316.749 547.536 318.948 Q545.546 321.147 545.546 324.943 L545.546 339.596 L541.263 339.596 L541.263 303.577 L545.546 303.577 L545.546 317.698 Q547.074 315.36 549.134 314.202 Q551.217 313.045 553.925 313.045 Q558.393 313.045 560.685 315.823 Q562.976 318.577 562.976 323.948 Z" fill="#000000" fill-rule="nonzero" fill-opacity="1" /><path clip-path="url(#clip190)" d="M583.254 326.563 Q578.092 326.563 576.101 327.744 Q574.11 328.924 574.11 331.772 Q574.11 334.04 575.592 335.383 Q577.096 336.702 579.666 336.702 Q583.208 336.702 585.337 334.202 Q587.49 331.679 587.49 327.512 L587.49 326.563 L583.254 326.563 M591.749 324.804 L591.749 339.596 L587.49 339.596 L587.49 335.661 Q586.032 338.022 583.856 339.156 Q581.68 340.267 578.532 340.267 Q574.55 340.267 572.189 338.045 Q569.851 335.799 569.851 332.049 Q569.851 327.674 572.768 325.452 Q575.708 323.23 581.518 323.23 L587.49 323.23 L587.49 322.813 Q587.49 319.874 585.546 318.276 Q583.624 316.656 580.129 316.656 Q577.907 316.656 575.8 317.188 Q573.694 317.721 571.749 318.786 L571.749 314.85 Q574.087 313.948 576.286 313.508 Q578.485 313.045 580.569 313.045 Q586.194 313.045 588.971 315.962 Q591.749 318.878 591.749 324.804 Z" fill="#000000" fill-rule="nonzero" fill-opacity="1" /><path clip-path="url(#clip190)" d="M622.073 323.948 L622.073 339.596 L617.814 339.596 L617.814 324.087 Q617.814 320.406 616.379 318.577 Q614.944 316.749 612.073 316.749 Q608.624 316.749 606.633 318.948 Q604.643 321.147 604.643 324.943 L604.643 339.596 L600.36 339.596 L600.36 313.67 L604.643 313.67 L604.643 317.698 Q606.17 315.36 608.231 314.202 Q610.314 313.045 613.022 313.045 Q617.49 313.045 619.781 315.823 Q622.073 318.577 622.073 323.948 Z" fill="#000000" fill-rule="nonzero" fill-opacity="1" /><path clip-path="url(#clip190)" d="M640.615 316.656 Q637.189 316.656 635.198 319.341 Q633.207 322.003 633.207 326.656 Q633.207 331.309 635.175 333.994 Q637.166 336.656 640.615 336.656 Q644.017 336.656 646.008 333.971 Q647.999 331.286 647.999 326.656 Q647.999 322.05 646.008 319.364 Q644.017 316.656 640.615 316.656 M640.615 313.045 Q646.17 313.045 649.341 316.656 Q652.513 320.267 652.513 326.656 Q652.513 333.022 649.341 336.656 Q646.17 340.267 640.615 340.267 Q635.036 340.267 631.865 336.656 Q628.717 333.022 628.717 326.656 Q628.717 320.267 631.865 316.656 Q635.036 313.045 640.615 313.045 Z" fill="#000000" fill-rule="nonzero" fill-opacity="1" /><path clip-path="url(#clip190)" d="M659.573 303.577 L663.832 303.577 L663.832 339.596 L659.573 339.596 L659.573 303.577 Z" fill="#000000" fill-rule="nonzero" fill-opacity="1" /></svg>
